/* XPM */
static char * wallmin_xpm[] = {
"32 32 291 2",
"  	c #664F46",
". 	c #675047",
"+ 	c #644F46",
"@ 	c #5E4B43",
"# 	c #604C44",
"$ 	c #5A4740",
"% 	c #614A41",
"& 	c #604840",
"* 	c #5F4840",
"= 	c #604940",
"- 	c #5F4940",
"; 	c #59453D",
"> 	c #534038",
", 	c #59433B",
"' 	c #5E463D",
") 	c #554038",
"! 	c #4E3E37",
"~ 	c #59443B",
"{ 	c #5B443C",
"] 	c #58433A",
"^ 	c #503F38",
"/ 	c #544038",
"( 	c #544039",
"_ 	c #524038",
": 	c #4C3B34",
"< 	c #54413A",
"[ 	c #523F38",
"} 	c #4F3D36",
"| 	c #503E37",
"1 	c #503D36",
"2 	c #563D35",
"3 	c #543C35",
"4 	c #4E3931",
"5 	c #49362F",
"6 	c #503C35",
"7 	c #4C3931",
"8 	c #573F36",
"9 	c #563E36",
"0 	c #553D35",
"a 	c #533C34",
"b 	c #4C3730",
"c 	c #49352F",
"d 	c #4B3730",
"e 	c #513A33",
"f 	c #523B33",
"g 	c #4E3831",
"h 	c #3B2D26",
"i 	c #4D3831",
"j 	c #46342D",
"k 	c #4B3630",
"l 	c #46332D",
"m 	c #3C2E27",
"n 	c #4D3931",
"o 	c #4F3932",
"p 	c #4E3932",
"q 	c #523B34",
"r 	c #4D3730",
"s 	c #4A352F",
"t 	c #47342E",
"u 	c #44332D",
"v 	c #44322B",
"w 	c #503932",
"x 	c #43322B",
"y 	c #4B362F",
"z 	c #3D2F28",
"A 	c #44322C",
"B 	c #44312B",
"C 	c #45322C",
"D 	c #43322C",
"E 	c #43312B",
"F 	c #382B25",
"G 	c #4C3831",
"H 	c #41302A",
"I 	c #42322B",
"J 	c #4A362F",
"K 	c #42302A",
"L 	c #3B2D27",
"M 	c #3E2E28",
"N 	c #45332D",
"O 	c #49352E",
"P 	c #47342D",
"Q 	c #47332D",
"R 	c #3C2D27",
"S 	c #48342E",
"T 	c #42312B",
"U 	c #3A2C26",
"V 	c #3F2E29",
"W 	c #372A25",
"X 	c #44332C",
"Y 	c #45332C",
"Z 	c #48352E",
"` 	c #3A2B25",
" .	c #3D2D27",
"..	c #332721",
"+.	c #3B2C26",
"@.	c #362923",
"#.	c #392A25",
"$.	c #392B25",
"%.	c #372923",
"&.	c #322620",
"*.	c #382A24",
"=.	c #3C2C26",
"-.	c #412F29",
";.	c #43312A",
">.	c #44322A",
",.	c #46332C",
"'.	c #413029",
").	c #5C463D",
"!.	c #5A433B",
"~.	c #5A433A",
"{.	c #59433A",
"].	c #574138",
"^.	c #554139",
"/.	c #533F37",
"(.	c #523F37",
"_.	c #4D3B34",
":.	c #42332C",
"<.	c #493932",
"[.	c #543F37",
"}.	c #503C34",
"|.	c #4F3C34",
"1.	c #513E36",
"2.	c #56413A",
"3.	c #44352D",
"4.	c #534139",
"5.	c #564139",
"6.	c #513C34",
"7.	c #584037",
"8.	c #5B4138",
"9.	c #594037",
"0.	c #573E36",
"a.	c #553E36",
"b.	c #47352E",
"c.	c #543C34",
"d.	c #543D35",
"e.	c #44342C",
"f.	c #594038",
"g.	c #573F37",
"h.	c #503A32",
"i.	c #513A32",
"j.	c #513B33",
"k.	c #46352E",
"l.	c #4D3830",
"m.	c #402F29",
"n.	c #3D2E28",
"o.	c #513B34",
"p.	c #4A3730",
"q.	c #372B25",
"r.	c #3E302A",
"s.	c #342823",
"t.	c #3F2E28",
"u.	c #362823",
"v.	c #352822",
"w.	c #392A24",
"x.	c #332621",
"y.	c #312520",
"z.	c #2C221C",
"A.	c #352722",
"B.	c #4D3C35",
"C.	c #473730",
"D.	c #3B2E27",
"E.	c #43362F",
"F.	c #4B3B34",
"G.	c #463630",
"H.	c #44352F",
"I.	c #483932",
"J.	c #443630",
"K.	c #483831",
"L.	c #3A2F29",
"M.	c #4B3A33",
"N.	c #4A3A33",
"O.	c #4E3D35",
"P.	c #46372F",
"Q.	c #4C3B33",
"R.	c #493830",
"S.	c #41332C",
"T.	c #382D27",
"U.	c #43342D",
"V.	c #47362F",
"W.	c #45322B",
"X.	c #4B3931",
"Y.	c #533B34",
"Z.	c #4F3A32",
"`.	c #40312B",
" +	c #533D35",
".+	c #553E35",
"++	c #533E36",
"@+	c #3C2E28",
"#+	c #4A352E",
"$+	c #372B24",
"%+	c #503A33",
"&+	c #3C2F29",
"*+	c #382C27",
"=+	c #352924",
"-+	c #352923",
";+	c #45322D",
">+	c #352A24",
",+	c #42302B",
"'+	c #322722",
")+	c #2E231E",
"!+	c #372924",
"~+	c #322721",
"{+	c #332922",
"]+	c #362A24",
"^+	c #342721",
"/+	c #362822",
"(+	c #312720",
"_+	c #372A24",
":+	c #513E37",
"<+	c #513F37",
"[+	c #55413A",
"}+	c #4F3E36",
"|+	c #3A2D27",
"1+	c #443832",
"2+	c #523E36",
"3+	c #523E37",
"4+	c #4D3C34",
"5+	c #55423A",
"6+	c #56423A",
"7+	c #544139",
"8+	c #4B3932",
"9+	c #3F2F28",
"0+	c #42342D",
"a+	c #523C34",
"b+	c #543D34",
"c+	c #553C35",
"d+	c #553D36",
"e+	c #3E2D27",
"f+	c #4F3931",
"g+	c #48352F",
"h+	c #3B2B25",
"i+	c #372C26",
"j+	c #3E2F29",
"k+	c #382924",
"l+	c #392D27",
"m+	c #412F2A",
"n+	c #392C26",
"o+	c #312620",
"p+	c #3E2D28",
"q+	c #42352E",
"r+	c #41342D",
"s+	c #3B2F29",
"t+	c #3D312B",
"u+	c #322822",
"v+	c #3E312B",
"w+	c #40322C",
"x+	c #3F322C",
"y+	c #3D322B",
"z+	c #3C302A",
"A+	c #2E241E",
"B+	c #362B25",
"C+	c #3E322C",
"D+	c #3A2E28",
"E+	c #3B2F28",
"F+	c #2E251F",
"G+	c #3B302A",
"H+	c #3C3029",
"I+	c #382C26",
"J+	c #563F37",
"K+	c #553F37",
"L+	c #543E36",
"M+	c #523D35",
"N+	c #574038",
"O+	c #4B3731",
"P+	c #3D3029",
"Q+	c #4E3B34",
"R+	c #4E3A33",
"S+	c #4A3831",
"T+	c #4F3A33",
"U+	c #503B34",
"V+	c #4F3B34",
"W+	c #4D3932",
"X+	c #3E3029",
"Y+	c #3F2F29",
"Z+	c #4D3832",
"`+	c #382B24",
" @	c #4B3831",
".@	c #342822",
"+@	c #352823",
"@@	c #46342E",
"#@	c #342A24",
"$@	c #322621",
"%@	c #322520",
"&@	c #32251F",
"*@	c #31251F",
"=@	c #30241E",
"-@	c #261E18",
";@	c #2F231E",
">@	c #2F241E",
",@	c #2A201B",
"'@	c #281F19",
"  . + @ # $ % & * = - ; > , ' ) ! ~ { { ] ^ / ( _ ( : < [ } | 1 ",
"2 3 4 5 6 7 8 9 0 a b c d e f g h d e e i j k b d l m n i o o p ",
"q r s t u v e w w o c l x l y b z A B C D l l l l E F G d 4 o b ",
"w y s t H I w i k J l H K l C K L l B M A l l l l N F O O J o b ",
"P Q l l E R S Q l K H E K l l T U l N V l l l l Q l W X P Y Z t ",
"`  . . .` ..+.+.` @.#.$.%.` +.` &.+.+.*.` #.=.-.;.;.$.H v >.,.'.",
").!.~.{.].^./.(._.| :.<./.(.) [.^./.}._ |.:.|.1./ [.2.^.3.4.5.6.",
"7.8.8.9.0.0 0 a.f p K b.c.0 0 0 d.c.4 a i e.f.g.9 9 9 h.}.9 9 8 ",
"h.h.4 g o i.o f j.g ` k.0 f l.d d J l O m.n.o.h.p o o Q b.b i h.",
"p.4 o o i J ,.o o b =.k.o J l l l l E E  .q.5 Y Q Q Q l C T l S ",
"t c c s c P m.s J S  .r.Z l l l l A A A H s.A t.A l l l l A E l ",
"U ` $.$.u.v.@.w.` $.x.y.` ` ` w.%.$.*.%.*.z.*.A.%.w.%.w.$.$.%.$.",
"B.: C.C.D.E.F.<.G.H.I.J.K.: <.:.L.M.N.O.B.M.P.Q.R.S.T.N.U.Q.: V.",
"9 9 0 j.W.X.Y.Y.q Z.q 4 Y.Y.Y.i `.o. +a..+.+++a j.Z.@+}.Z.a d.c.",
"9 0 f a ;.3.p o o b d d o e e #+$+d o e e e e %+J b F p.o O o w ",
"%+k c b  .&+J k s P ,.v J d b C T.p.c k k k b i b #+$+b.g P S d ",
"g S l l %.*+j S Y S Q A Q S c K =+N l l l Q Q S Z O -+D A A u B ",
"l l l ;+u.>+C N ,+N l C K l l M '+D l l l l l l E E )+R B N E E ",
"%.!+!+$.~+{+$.!+@.]+^+....*.$.*.~+*.F *./+^+*.%.*.v.(+_+*.*.!+v.",
":+: <+> ( [+/ :+^.}+|+1+> ^.) / / / 2+3+_.I.1.4+( 5+6+7+/ /.3+8+",
"0 d.a a.a..+.+0 a f 9+0+o.a a+a a a f e i p.0 d.b+c+0 0 0 0 d+a ",
"%+i.Z.e j.j.j.f e b e+z g o O s b b s c l I %+e %+o o f+b b b S ",
"g+J J k d b b i i b h+i+x S A l Q l l l H j+o o g J J c t C H l ",
"N E A l l Q Q t t l k+l+A C l l l l l l m+n+J J S l l l l A ;+l ",
"+. .=.m.-.m.m.-.-.m...o+M M -.-.m.m.m.-.+.o+m.-.-.-.m.p+t. .e+m.",
"E.q+r+s+t+]+u+t+v+w+x+y+v+v+z+l+A+s+B+l+t+C+s+D+D+E+E+F+G+z+H+I+",
"J+K+K+L+M+d 0+L+a.a.J+L+N+a. +O+P+Q+R+S+T+U+U+U+U+V+T+:._.T+T+W+",
"0 0 0 h.f r X+j.q a a j.c.a f i U G o p #+o o p p p g Y+Z+o g i ",
"o w w 4 l.O @+o o o g i i g o b `+O+o o b O c O c J c U  @g c t ",
"t S t C Z C .@J s S O S t c k S +@t b k S Q C A N l l _+@@O l l ",
"C C A K C E #@Y C C C C C C ,.A $@T l C C C C C A e+E +@T C C C ",
"%@&@*@&@&@=@-@*@&@&@&@&@&@&@&@*@-@;@&@&@&@&@&@&@&@>@,@'@>@&@&@&@"};
