/* XPM */
static char * netherbrickM_xpm[] = {
"64 64 124 2",
"  	c #271518",
". 	c #251418",
"+ 	c #211014",
"@ 	c #200F13",
"# 	c #1B0E10",
"$ 	c #1A0D0F",
"% 	c #190D0F",
"& 	c #251417",
"* 	c #1A0D10",
"= 	c #201014",
"- 	c #241417",
"; 	c #1F0F13",
"> 	c #231417",
", 	c #1A0E10",
"' 	c #391C21",
") 	c #3B1D22",
"! 	c #412329",
"~ 	c #42242A",
"{ 	c #43242A",
"] 	c #3C1D23",
"^ 	c #3B1D23",
"/ 	c #3B1C22",
"( 	c #36191E",
"_ 	c #35191D",
": 	c #231316",
"< 	c #35191E",
"[ 	c #422429",
"} 	c #412228",
"| 	c #391A1F",
"1 	c #3E1E24",
"2 	c #45252B",
"3 	c #46262C",
"4 	c #3F1F25",
"5 	c #391A20",
"6 	c #381A1F",
"7 	c #44242A",
"8 	c #3B1B20",
"9 	c #371A1F",
"0 	c #391B20",
"a 	c #341A1F",
"b 	c #371A20",
"c 	c #33191D",
"d 	c #32191D",
"e 	c #31181C",
"f 	c #1E1013",
"g 	c #1F1114",
"h 	c #361A1F",
"i 	c #34191D",
"j 	c #30181C",
"k 	c #34181D",
"l 	c #1D1013",
"m 	c #261518",
"n 	c #251517",
"o 	c #1D0F11",
"p 	c #1D0E11",
"q 	c #2F181C",
"r 	c #1C0E10",
"s 	c #201114",
"t 	c #190D10",
"u 	c #1E0F12",
"v 	c #1C0E11",
"w 	c #1F1113",
"x 	c #180D0F",
"y 	c #180D10",
"z 	c #1B0E11",
"A 	c #1E0F13",
"B 	c #3A1B20",
"C 	c #371A1E",
"D 	c #37191E",
"E 	c #3A1C22",
"F 	c #3D1D23",
"G 	c #44252B",
"H 	c #48292E",
"I 	c #48292F",
"J 	c #3A1A1F",
"K 	c #4A2A30",
"L 	c #47262C",
"M 	c #31171C",
"N 	c #2F161B",
"O 	c #2B161A",
"P 	c #2A151A",
"Q 	c #1F1013",
"R 	c #32191E",
"S 	c #39191F",
"T 	c #331A1E",
"U 	c #321A1E",
"V 	c #31191D",
"W 	c #321B1E",
"X 	c #3F2026",
"Y 	c #402026",
"Z 	c #30171C",
"` 	c #2E161B",
" .	c #2A1519",
"..	c #291519",
"+.	c #37181E",
"@.	c #38181E",
"#.	c #331B1F",
"$.	c #3F1F26",
"%.	c #35181E",
"&.	c #36181E",
"*.	c #37191F",
"=.	c #1F1014",
"-.	c #31181D",
";.	c #231317",
">.	c #2F171B",
",.	c #2E181B",
"'.	c #2E171B",
").	c #32181D",
"!.	c #231416",
"~.	c #1B0D10",
"{.	c #1D0F12",
"].	c #211114",
"^.	c #221216",
"/.	c #221115",
"(.	c #241317",
"_.	c #251518",
":.	c #361C20",
"<.	c #3D1E24",
"[.	c #3D1E23",
"}.	c #3E1F25",
"|.	c #351C20",
"1.	c #45262C",
"2.	c #35181D",
"3.	c #2F181B",
"  . . . + @ @ @ # $ $ $ $ $ $ % & . . . . . . . # $ $ $ $ $ $ $ $ $ $ $ $ $ $ $ $ $ $ $ $ $ $ * @ @ @ = . . . . . . . . . . .   ",
". - - - = ; ; ; * % % % % % % % > - - - - - - - , % % % % % % % % % % % % % % % % % % % % % % % ; ; ; ; - - - - - - - - - - - . ",
". - - - = ; ; ; * % % % % % % % > - - - - - - - , % % % % % % % % % % % % % % % % % % % % % % % ; ; ; ; - - - - - - - - - - - . ",
". - - - = ; ; ; $ % % % % % % % > - - - - - - - , % % % % % % % % % % % % % % % % % % % % % % % ; ; ; ; - - - - - - - - - - - . ",
". - - - ' ) ) ) ! ~ ~ ~ ~ ~ ~ ~ { { { { ] ^ ^ ^ / / / / ( _ _ ( : : : : < _ _ < / / / / [ ~ ~ ~ { { { { } } } } ( ( ( ( ( ( ( | ",
". - - - ^ 1 1 1 2 3 3 3 3 3 3 3 3 3 3 3 4 1 1 1 1 1 1 1 5 6 6 6 - - - - 6 6 6 6 1 1 1 1 3 3 3 3 3 3 3 3 7 7 7 7 6 6 6 6 6 6 6 8 ",
". - - - ^ 1 1 1 2 3 3 3 3 3 3 3 3 3 3 3 4 1 1 1 1 1 1 1 5 6 6 6 - - - - 6 6 6 6 1 1 1 1 3 3 3 3 3 3 3 3 7 7 7 7 6 6 6 6 6 6 6 8 ",
". - - - ^ 1 1 1 2 3 3 3 3 3 3 3 3 3 3 3 4 1 1 1 1 1 1 1 5 6 6 6 - - - - 6 6 6 6 1 1 1 1 3 3 3 3 3 3 3 3 7 7 7 7 6 6 6 6 6 6 6 8 ",
". - - - 9 0 0 0 a a a a a a a a b b b b ( < < < c d d d e e e e f g g f 6 6 6 6 d d d d b b b b b b b b h h h h e e e e e e e i ",
". - - - ( 6 6 6 e j j j j j j j k k k k k k k k j j j j j j j j f f f l 6 6 6 6 j j j j k k k k k k k k k k k k j j j j j j j d ",
". - - - ( 6 6 6 e j j j j j j j k k k k k k k k j j j j j j j j f f f l 6 6 6 6 j j j j k k k k k k k k k k k k j j j j j j j d ",
". - - - ( 6 6 6 e j j j j j j j k k k k k k k k j j j j j j j j f f f l 6 6 6 6 j j j j k k k k k k k k k k k k j j j j j j j c ",
". - - - ( 6 6 6 e j j j m & & - j j j j j j j j n & & & o p p p f f f l 6 6 6 6 j j j j & - - & j j j j j j j j j j j j - & & m ",
". - - - ( 6 6 6 e j j j m - - - q j j j j j j j n - - - o r r r f f f l 6 6 6 6 j j j j & - - - j j j j j j j j j j j j - - - . ",
". - - - ( 6 6 6 e j j j m - - - q j j j j j j j n - - - o r r r f f f l 6 6 6 6 j j j j & - - - j j j j j j j j j j j j - - - . ",
". - - - ( 6 6 6 e j j j m - - - j j j j j j j j & - - - o r r r f f f l 6 6 6 6 j j j j & - - - j j j j j j j j j j j j - - - . ",
". - - - s s s s g g g g f f f f o o o o # , , # * * * * r r r r t t t t u u u u = = = = ; ; ; ; , , , , , , , , , , , , ; ; ; = ",
". - - - g f f f f f f f f f f f r r r r % % % % t t t t r r r r t t t t v v v v ; ; ; ; ; ; ; ; % % % % % % % % % % % % ; ; ; @ ",
". - - - g f f f f f f f f f f f r r r r % % % % t t t t r r r r t t t t v v v v ; ; ; ; ; ; ; ; % % % % % % % % % % % % ; ; ; @ ",
". - - - w f f f f f f f f f f f # # # # % x x x x y y y # # # # t t t t z z z z ; ; ; ; ; ; ; A % % % % % % % % % % % % ; ; ; @ ",
"B C C C D D D D   - - - E F F F G G G G G G G G H I I I 2 G G G ] ] ] ] ] ] ] F - - - > ] F F F ] ] ] ] D D D D D D D D D D D J ",
"8 6 6 6 6 6 6 6   - - - ) 1 1 1 3 3 3 3 3 3 3 3 K K K K 3 3 3 3 1 1 1 1 1 1 1 1 & - - - 1 1 1 1 1 1 1 1 6 6 6 6 6 6 6 6 6 6 6 8 ",
"8 6 6 6 6 6 6 6   - - - ) 1 1 1 3 3 3 3 3 3 3 3 K K K K 3 3 3 3 1 1 1 1 1 1 1 1 & - - - 1 1 1 1 1 1 1 1 6 6 6 6 6 6 6 6 6 6 6 8 ",
"8 6 6 6 6 6 6 6   - - - ) 1 1 1 3 3 3 3 3 3 3 3 K K K K L 3 3 3 1 1 1 1 1 1 1 1 - - - > 1 1 1 1 1 1 1 1 6 6 6 6 6 6 6 6 6 6 6 8 ",
"M N N N O P P P s Q Q Q ( | | 6 R R R R S S S S T U U U R R R R V V V V V V V V U W W W X Y Y 4 m       e e e e e e e e e e e c ",
"Z ` ` `  .......s f f f _ 6 6 6 j j j j +.@.@.@.e j j j j j j j j j j j j j j j #.#.#.#.Y Y Y 4 - - - & j j j j j j j j j j j d ",
"Z ` ` `  .......s f f f _ 6 6 6 j j j j +.@.@.@.e j j j j j j j j j j j j j j j #.#.#.#.Y Y Y 4 - - - & j j j j j j j j j j j d ",
"Z ` ` `  .......s f f f _ 6 6 6 j j j j @.@.@.@.e j j j j j j j j j j j j j j j #.#.#.#.Y Y Y $.- - - & j j j j j j j j j j j c ",
"O ......& - - - g f f f _ 6 6 6 j j j j j j j j %.&.&.&.e j j j ........- - - - - - - - 9 6 6 9 j j j j - - - - j j j j - - - . ",
"O ......& - - - g f f f _ 6 6 6 j j j j j j j j &.&.&.&.e j j j ........- - - - - - - - 9 6 6 6 j j j j - - - - j j j j - - - . ",
"O ......& - - - g f f f _ 6 6 6 j j j j j j j j &.&.&.&.e j j j ........- - - - - - - - 9 6 6 6 j j j j - - - - j j j j - - - . ",
"O ......& - - - g f f f < 6 6 6 e j j j j j j j &.&.&.&.e j j j ........- - - - - - - - 6 6 6 6 j j j j - - - - j j j j - - - . ",
". - - - - - - - # % % % x x x x x x x x A ; ; ; f l l l f f f f f f f f f f f f - - - - - - - - - - - - - - - - - - - - - - - . ",
". - - - - - - - # % % % % % % % % % % % ; ; ; ; f f f f f f f f f f f f f f f f - - - - - - - - - - - - - - - - - - - - - - - . ",
". - - - - - - - # % % % % % % % % % % % ; ; ; ; f f f f f f f f f f f f f f f f - - - - - - - - - - - - - - - - - - - - - - - . ",
". - - - - - - - , x x x x x x x % % % % u A A A l l l l l l l l f f f f l l l l > - - - - - - - - - - - - - - - - - - - - - - & ",
". - - - ( 6 6 6 6 6 6 6 6 6 6 6 & - - - F 1 1 1 1 1 1 1 1 1 1 1 > - - - 1 1 1 1 6 6 6 6 6 6 6 *.f f f =.6 6 6 6 6 6 6 6 6 6 6 8 ",
". - - - ( 6 6 6 6 6 6 6 6 6 6 6 & - - - F 1 1 1 1 1 1 1 1 1 1 1 > - - - 1 1 1 1 6 6 6 6 6 6 6 D f f f =.6 6 6 6 6 6 6 6 6 6 6 8 ",
". - - - ( 6 6 6 6 6 6 6 6 6 6 6 & - - - F 1 1 1 1 1 1 1 1 1 1 1 > - - - 1 1 1 1 6 6 6 6 6 6 6 D f f f =.6 6 6 6 6 6 6 6 6 6 6 8 ",
". - - - ( 6 6 6 6 6 6 6 6 6 6 6 & - - - F 1 1 1 1 1 1 1 1 1 1 1 > - - - 1 1 1 1 6 6 6 6 6 6 6 C f f f =.6 6 6 6 6 6 6 6 6 6 6 8 ",
". - - - ( 6 6 6 -.j j j j j j j - - - - 9 6 6 6 e j j j j j j e - - - - 1 1 1 1 j j j j j j j q f f f =.6 6 6 6 j j j j j j j d ",
". - - - ( 6 6 6 e j j j j j j j - - - - C 6 6 6 e j j j j j j j - - - - 1 1 1 1 j j j j j j j q f f f =.6 6 6 6 j j j j j j j d ",
". - - - ( 6 6 6 e j j j j j j j - - - - C 6 6 6 e j j j j j j j - - - - 1 1 1 1 j j j j j j j q f f f =.6 6 6 6 j j j j j j j d ",
". - - - ( 6 6 6 e q q q j j j j - - - - C 6 6 6 e j j j j j j j > - - ;.1 1 1 1 j j j j q q q >.f f f =.6 6 6 6 j j j j j j j d ",
". - - - ( 6 6 6   - - - ,.j j j - - - - C 6 6 6 e j j j j j j j f f f l 6 6 6 6 j j j j - - - - f f f =.6 6 6 6 j j j j j j j d ",
". - - - ( 6 6 6   - - - ,.j j j - - - - C 6 6 6 e j j j j j j j f f f l 6 6 6 6 j j j j & - - - f f f =.6 6 6 6 j j j j j j j d ",
". - - - ( 6 6 6   - - - ,.j j j - - - - C 6 6 6 e j j j j j j j f f f l 6 6 6 6 j j j j & - - - f f f =.6 6 6 6 j j j j j j j d ",
"& - - - < D D D   > > > '.>.>.>.- > > > ( D D D j q q q q q q j l f f l C D D D q q q j - - - : f f f g *.D D D q q q q q q q ).",
"@ ; ; ; ; ; ; ; * % % % % % % % % % % % % x x x !.- - - Q f f f ~.~.~.~.{.{.{.{.].].].].~.~.~.~.^.^.^.^.; ; ; ; - - - - - - - . ",
"@ ; ; ; ; ; ; ; * % % % % % % % % % % % % % % % !.- - - Q f f f ~.~.~.~.{.{.{.{.].].].].~.~.~.~.^.^.^.^.; ; ; ; - - - - - - - . ",
"@ ; ; ; ; ; ; ; * % % % % % % % % % % % % % % % !.- - - Q f f f ~.~.~.~.{.{.{.{.].].].].~.~.~.~.^.^.^.^.; ; ; ; - - - - - - - . ",
"+ = = = = + + + r # # # # z z z # # # # , , , , - & & & s =.=.=.~.~.~.~.f f f f /./././.o p p {.(.(.(.(.+ + + + _._._._.& & & m ",
":.#.#.#.<.1 1 1 1 1 1 1 2 3 3 3 4 1 1 1 5 6 6 6 6 6 6 6 6 6 6 6 l f f l 6 6 6 6 1 1 1 1 3 3 3 3 3 3 3 3 7 7 7 7 7 7 7 7 6 6 6 8 ",
":.#.#.#.[.1 1 1 1 1 1 1 2 3 3 3 }.1 1 1 6 6 6 6 6 6 6 6 6 6 6 6 l f f l 6 6 6 6 1 1 1 1 3 3 3 3 3 3 3 3 7 7 7 7 7 7 7 7 6 6 6 8 ",
":.#.#.#.[.1 1 1 1 1 1 1 2 3 3 3 }.1 1 1 6 6 6 6 6 6 6 6 6 6 6 6 l f f l 6 6 6 6 1 1 1 1 3 3 3 3 3 3 3 3 7 7 7 7 7 7 7 7 6 6 6 8 ",
"|.#.#.#.[.1 1 1 1 1 1 1 2 3 3 3 1 1 1 1 6 6 6 6 6 6 6 6 6 6 6 6 l f f l 6 6 6 6 1 1 1 1 1.3 3 3 3 3 3 3 7 7 7 7 7 7 7 7 6 6 6 8 ",
"& - - - ( 6 6 6 k k k k j j j j j j j j j j j j j j j j j j j j - - - - 6 6 6 6 j j j j j j j j j j j j j j j j j j j j > - - & ",
". - - - ( 6 6 6 2.k k k e j j j j j j j j j j j j j j j j j j j - - - - 6 6 6 6 j j j j j j j j j j j j j j j j j j j j - - - . ",
". - - - ( 6 6 6 2.k k k e j j j j j j j j j j j j j j j j j j j - - - - 6 6 6 6 j j j j j j j j j j j j j j j j j j j j - - - . ",
". - - - ( 6 6 6 k k k k j j j j j j j j j j j j '.'.'.'.'.'.'.'.> > > : 6 6 6 6 j j j j 3.3.3.3.3.3.3.>.'.'.'.'.3.3.3.3.- - - . ",
". - - - ( 6 6 6 e j j j j j j j j j j j j j j j s f f f f f f f f f f l 6 6 6 6 j j j j & - - - - - - - f f f f - - - - - - - . ",
". - - - ( 6 6 6 e j j j j j j j j j j j j j j j s f f f f f f f f f f l 6 6 6 6 j j j j & - - - - - - - f f f f - - - - - - - . ",
". - - - ( 6 6 6 e j j j j j j j j j j j j j j j s f f f f f f f f f f l 6 6 6 6 j j j j & - - - - - - - f f f f - - - - - - - . ",
"  . . . | 8 8 8 i d d d d d d d d d d d d d d c ].Q Q Q Q Q Q Q Q Q Q Q 8 8 8 8 d d d c m . . . . . . & Q Q Q =.. . . . . . .   "};
