/* XPM */
static char * platypus_xpm[] = {
"64 64 602 2",
"  	c #236D7A",
". 	c #6EADB2",
"+ 	c #337883",
"@ 	c #246D7A",
"# 	c #357A85",
"$ 	c #266F7C",
"% 	c #246C79",
"& 	c #325262",
"* 	c #393549",
"= 	c #39374B",
"- 	c #246B78",
"; 	c #68A4AA",
"> 	c #4F8F98",
", 	c #236C79",
"' 	c #266875",
") 	c #2F5867",
"! 	c #4C3543",
"~ 	c #593A42",
"{ 	c #462E40",
"] 	c #3C2940",
"^ 	c #39364A",
"/ 	c #266876",
"( 	c #29707D",
"_ 	c #266F7B",
": 	c #2B5C6B",
"< 	c #3C2B41",
"[ 	c #452E41",
"} 	c #563741",
"| 	c #493040",
"1 	c #38394D",
"2 	c #276573",
"3 	c #27707C",
"4 	c #3D808A",
"5 	c #4A656B",
"6 	c #573841",
"7 	c #452E40",
"8 	c #354557",
"9 	c #327783",
"0 	c #6AA8AE",
"a 	c #3B7783",
"b 	c #8FA9B0",
"c 	c #52646A",
"d 	c #845243",
"e 	c #764640",
"f 	c #5E3A41",
"g 	c #643C3F",
"h 	c #553540",
"i 	c #529098",
"j 	c #99B4B9",
"k 	c #246E7B",
"l 	c #4C899B",
"m 	c #A0BABE",
"n 	c #5C99A0",
"o 	c #566368",
"p 	c #825346",
"q 	c #89503E",
"r 	c #613C41",
"s 	c #7B493F",
"t 	c #8A503E",
"u 	c #7E4A3E",
"v 	c #5E3940",
"w 	c #422C40",
"x 	c #4C3140",
"y 	c #609FAC",
"z 	c #BDDDE0",
"A 	c #467F8A",
"B 	c #246D7B",
"C 	c #357C8F",
"D 	c #44899C",
"E 	c #4B8B94",
"F 	c #705A56",
"G 	c #7D4A3F",
"H 	c #824C3F",
"I 	c #613C40",
"J 	c #412C40",
"K 	c #503341",
"L 	c #583841",
"M 	c #2F7788",
"N 	c #52929C",
"O 	c #2B727E",
"P 	c #246E7C",
"Q 	c #2D7585",
"R 	c #5B6265",
"S 	c #835344",
"T 	c #834D3F",
"U 	c #5F3B40",
"V 	c #5B3941",
"W 	c #442E40",
"X 	c #67A6AC",
"Y 	c #3E818B",
"Z 	c #256D7A",
"` 	c #6B5E5D",
" .	c #8B513E",
"..	c #673F40",
"+.	c #5B3A41",
"@.	c #3E2A40",
"#.	c #344658",
"$.	c #347984",
"%.	c #29717D",
"&.	c #5E6265",
"*.	c #885140",
"=.	c #8E5440",
"-.	c #AE7953",
";.	c #8B523F",
">.	c #884F3E",
",.	c #724440",
"'.	c #7A483F",
").	c #663F40",
"!.	c #5C3A41",
"~.	c #573741",
"{.	c #383B4F",
"].	c #246B79",
"^.	c #367A85",
"/.	c #42848E",
"(.	c #2A727E",
"_.	c #2D6B77",
":.	c #675E5D",
"<.	c #AC7652",
"[.	c #AD7853",
"}.	c #8B513F",
"|.	c #78473F",
"1.	c #623D41",
"2.	c #603C41",
"3.	c #593841",
"4.	c #3D3E4F",
"5.	c #4B8790",
"6.	c #55858F",
"7.	c #2A7382",
"8.	c #61A0A8",
"9.	c #A5D3D6",
"0.	c #6EA5AB",
"a.	c #29717E",
"b.	c #526469",
"c.	c #A26C4C",
"d.	c #8E5540",
"e.	c #6D4240",
"f.	c #5A3C43",
"g.	c #46545E",
"h.	c #3C7E89",
"i.	c #337985",
"j.	c #9BCCD2",
"k.	c #B7CFD1",
"l.	c #226D7A",
"m.	c #398093",
"n.	c #3E8097",
"o.	c #A0B5BB",
"p.	c #9DD0D3",
"q.	c #387B87",
"r.	c #814C3F",
"s.	c #564149",
"t.	c #518F97",
"u.	c #27707E",
"v.	c #4C8FA0",
"w.	c #5E9CA3",
"x.	c #2F7687",
"y.	c #42839B",
"z.	c #40839A",
"A.	c #5F9EA6",
"B.	c #2E7480",
"C.	c #366A74",
"D.	c #735A56",
"E.	c #986146",
"F.	c #8F5641",
"G.	c #734540",
"H.	c #5C3B42",
"I.	c #425A65",
"J.	c #91A8AE",
"K.	c #6C9099",
"L.	c #2E7686",
"M.	c #27707F",
"N.	c #43676E",
"O.	c #A46D4D",
"P.	c #B58057",
"Q.	c #945C44",
"R.	c #7C493F",
"S.	c #5B3C43",
"T.	c #266C79",
"U.	c #31798A",
"V.	c #7A9FAA",
"W.	c #7DB0B5",
"X.	c #3B7F89",
"Y.	c #996247",
"Z.	c #B17B54",
"`.	c #A16A4B",
" +	c #8D5340",
".+	c #834D3E",
"++	c #653E40",
"@+	c #3A5E69",
"#+	c #297281",
"$+	c #3B8296",
"%+	c #488B98",
"&+	c #2D7480",
"*+	c #9F684A",
"=+	c #9A6247",
"-+	c #814B3F",
";+	c #6B4140",
">+	c #5B3B43",
",+	c #2C6874",
"'+	c #2A707C",
")+	c #2D707C",
"!+	c #266F7D",
"~+	c #383A4D",
"{+	c #246A78",
"]+	c #296A76",
"^+	c #46646B",
"/+	c #9D6649",
"(+	c #B27D55",
"_+	c #5E3B41",
":+	c #593D45",
"<+	c #35626E",
"[+	c #A4D2D6",
"}+	c #C0D0D3",
"|+	c #266775",
"1+	c #256A77",
"2+	c #3A3247",
"3+	c #306571",
"4+	c #345563",
"5+	c #34495A",
"6+	c #256976",
"7+	c #5B3C44",
"8+	c #674041",
"9+	c #77473F",
"0+	c #5A3941",
"a+	c #553F48",
"b+	c #37616C",
"c+	c #28717F",
"d+	c #579AAD",
"e+	c #6DABB0",
"f+	c #276674",
"g+	c #354556",
"h+	c #39515F",
"i+	c #38606C",
"j+	c #3B3146",
"k+	c #402B40",
"l+	c #533541",
"m+	c #305665",
"n+	c #34636F",
"o+	c #583F47",
"p+	c #6F4340",
"q+	c #894F3E",
"r+	c #483B4A",
"s+	c #2C5C6B",
"t+	c #296270",
"u+	c #38384C",
"v+	c #533540",
"w+	c #4A3040",
"x+	c #524750",
"y+	c #5D3A41",
"z+	c #844D3E",
"A+	c #79483F",
"B+	c #77463F",
"C+	c #4E3241",
"D+	c #464754",
"E+	c #365A67",
"F+	c #383B4E",
"G+	c #305463",
"H+	c #2B5F6D",
"I+	c #4B8A93",
"J+	c #8FAEB3",
"K+	c #4A7F89",
"L+	c #482F40",
"M+	c #553641",
"N+	c #2F5665",
"O+	c #3C5F6A",
"P+	c #574149",
"Q+	c #5D3B41",
"R+	c #74453F",
"S+	c #673E40",
"T+	c #3C2A41",
"U+	c #325261",
"V+	c #344A5B",
"W+	c #39394C",
"X+	c #2C5F6D",
"Y+	c #5B9AA6",
"Z+	c #B8DADE",
"`+	c #5E8F98",
" @	c #4D4E57",
".@	c #854D3E",
"+@	c #6E4240",
"@@	c #324F5F",
"#@	c #52919C",
"$@	c #327883",
"%@	c #432D40",
"&@	c #3D2A40",
"*@	c #5C383F",
"=@	c #64494B",
"-@	c #584047",
";@	c #854E3E",
">@	c #442D40",
",@	c #344A5A",
"'@	c #3C2A40",
")@	c #58363F",
"!@	c #864E3E",
"~@	c #874F3E",
"{@	c #364153",
"]@	c #3F869C",
"^@	c #374455",
"/@	c #3F2A40",
"(@	c #33485A",
"_@	c #4289A0",
":@	c #46535D",
"<@	c #5A3C44",
"[@	c #874E3E",
"}@	c #A97350",
"|@	c #373C4F",
"1@	c #7F4B3F",
"2@	c #573640",
"3@	c #57363F",
"4@	c #4D444F",
"5@	c #435862",
"6@	c #5A3D44",
"7@	c #714440",
"8@	c #633D41",
"9@	c #865141",
"0@	c #606061",
"a@	c #704340",
"b@	c #805447",
"c@	c #3C5D69",
"d@	c #5E3C42",
"e@	c #805346",
"f@	c #5F3B41",
"g@	c #6A4140",
"h@	c #643E41",
"i@	c #A6704E",
"j@	c #804B3F",
"k@	c #5C3C42",
"l@	c #47666D",
"m@	c #35616D",
"n@	c #5B3B42",
"o@	c #B07A54",
"p@	c #603E43",
"q@	c #276C78",
"r@	c #36616D",
"s@	c #8D5440",
"t@	c #653E41",
"u@	c #53454D",
"v@	c #925942",
"w@	c #604347",
"x@	c #2D6773",
"y@	c #256E7B",
"z@	c #488992",
"A@	c #435A65",
"B@	c #905741",
"C@	c #A8724F",
"D@	c #60484B",
"E@	c #286F7C",
"F@	c #6CAAAF",
"G@	c #246E7A",
"H@	c #AD7752",
"I@	c #5A494F",
"J@	c #576367",
"K@	c #406972",
"L@	c #3A7D88",
"M@	c #5D9BA2",
"N@	c #43838D",
"O@	c #366470",
"P@	c #534851",
"Q@	c #714340",
"R@	c #AC7752",
"S@	c #945D44",
"T@	c #775954",
"U@	c #666062",
"V@	c #656062",
"W@	c #2D6C77",
"X@	c #297280",
"Y@	c #4D8F9D",
"Z@	c #A2C9CC",
"`@	c #A2C8CB",
" #	c #42838C",
".#	c #48555F",
"+#	c #A56F4E",
"@#	c #905742",
"##	c #6F5B57",
"$#	c #695B5B",
"%#	c #435863",
"&#	c #2E7687",
"*#	c #4688A2",
"=#	c #7393A0",
"-#	c #99C6C9",
";#	c #57959D",
">#	c #A26B4C",
",#	c #7C4D43",
"'#	c #685553",
")#	c #3F5C67",
"!#	c #26707E",
"~#	c #3A7F93",
"{#	c #468AA3",
"]#	c #4A8D9B",
"^#	c #357984",
"/#	c #2B6975",
"(#	c #4F4A53",
"_#	c #AF7953",
":#	c #AA7450",
"<#	c #704945",
"[#	c #3E5D68",
"}#	c #2A7280",
"|#	c #4B505A",
"1#	c #8C523F",
"2#	c #B37E56",
"3#	c #B47F57",
"4#	c #B27C55",
"5#	c #6E4643",
"6#	c #3B5E69",
"7#	c #5F9CA4",
"8#	c #88C6C9",
"9#	c #90CBCE",
"0#	c #94CED0",
"a#	c #8A513E",
"b#	c #A7714F",
"c#	c #AF7A54",
"d#	c #B17C55",
"e#	c #975F46",
"f#	c #7E4A3F",
"g#	c #256E7C",
"h#	c #347C8F",
"i#	c #3B8195",
"j#	c #276F7C",
"k#	c #CCD8DB",
"l#	c #FDFEFE",
"m#	c #47525C",
"n#	c #AA7451",
"o#	c #AB7551",
"p#	c #7D493F",
"q#	c #41879E",
"r#	c #ACC0C5",
"s#	c #F5F8F8",
"t#	c #266E7B",
"u#	c #55949C",
"v#	c #405A65",
"w#	c #4488A0",
"x#	c #306F83",
"y#	c #296E7E",
"z#	c #ADC0C5",
"A#	c #67A3A9",
"B#	c #4A3B49",
"C#	c #694040",
"D#	c #7E493C",
"E#	c #673C39",
"F#	c #5F3A3E",
"G#	c #4989A4",
"H#	c #417291",
"I#	c #3A718B",
"J#	c #4C3C49",
"K#	c #4D3240",
"L#	c #684040",
"M#	c #76463F",
"N#	c #5C3638",
"O#	c #5A3538",
"P#	c #6B3F3A",
"Q#	c #70423B",
"R#	c #1F1833",
"S#	c #3A2638",
"T#	c #56363F",
"U#	c #3D8097",
"V#	c #457E9B",
"W#	c #2E6E82",
"X#	c #201933",
"Y#	c #503037",
"Z#	c #664140",
"`#	c #513941",
" $	c #453440",
".$	c #28283E",
"+$	c #493340",
"@$	c #287180",
"#$	c #3D8197",
"$$	c #498AA5",
"%$	c #4489A1",
"&$	c #41889F",
"*$	c #5B99A0",
"=$	c #BDD8DA",
"-$	c #7E9FA6",
";$	c #834C3E",
">$	c #7A473C",
",$	c #7F4A3D",
"'$	c #684240",
")$	c #343142",
"!$	c #2B2E42",
"~$	c #322F42",
"{$	c #513741",
"]$	c #27717F",
"^$	c #3D8294",
"/$	c #81BBC5",
"($	c #5B959D",
"_$	c #6E4440",
":$	c #313042",
"<$	c #2C2F43",
"[$	c #2C3043",
"}$	c #303043",
"|$	c #533942",
"1$	c #276B78",
"2$	c #504851",
"3$	c #4E3341",
"4$	c #513441",
"5$	c #6B4340",
"6$	c #2D3144",
"7$	c #3D4355",
"8$	c #414859",
"9$	c #424859",
"0$	c #3E4D5D",
"a$	c #286876",
"b$	c #266A78",
"c$	c #3A4052",
"d$	c #385665",
"e$	c #2C6573",
"f$	c #75463F",
"g$	c #613E40",
"h$	c #365968",
"i$	c #30616F",
"j$	c #256C79",
"k$	c #246D79",
"l$	c #49545E",
"m$	c #663E40",
"n$	c #4F3341",
"o$	c #412B40",
"p$	c #533741",
"q$	c #393142",
"r$	c #34394B",
"s$	c #3F4657",
"t$	c #355B6A",
"u$	c #315F6E",
"v$	c #4B3040",
"w$	c #493B4A",
"x$	c #4A515B",
"y$	c #373042",
"z$	c #33384A",
"A$	c #404658",
"B$	c #4D5463",
"C$	c #404A5B",
"D$	c #325E6C",
"E$	c #266B78",
"F$	c #415863",
"G$	c #5B3940",
"H$	c #3A2F45",
"I$	c #364C5C",
"J$	c #39606B",
"K$	c #4E4D56",
"L$	c #543841",
"M$	c #4F3741",
"N$	c #363749",
"O$	c #474F5E",
"P$	c #575F6B",
"Q$	c #5D6671",
"R$	c #454C5C",
"S$	c #42495A",
"T$	c #5A626E",
"U$	c #3F4B5C",
"V$	c #325D6C",
"W$	c #425863",
"X$	c #4F3441",
"Y$	c #354657",
"Z$	c #326470",
"`$	c #33636F",
" %	c #543942",
".%	c #4F3843",
"+%	c #303548",
"@%	c #363B4D",
"#%	c #464D5D",
"$%	c #4A5160",
"%%	c #626A74",
"&%	c #616A74",
"*%	c #616974",
"=%	c #606974",
"-%	c #606973",
";%	c #3C4252",
">%	c #256C78",
",%	c #286875",
"'%	c #334D5D",
")%	c #2C5C6A",
"!%	c #393348",
"~%	c #2D5968",
"{%	c #305362",
"]%	c #2A6975",
"^%	c #246875",
"/%	c #275968",
"(%	c #2D3547",
"_%	c #384153",
":%	c #404859",
"<%	c #444B5B",
"[%	c #454C5D",
"}%	c #454D5D",
"|%	c #4D5563",
"1%	c #677079",
"2%	c #676F79",
"3%	c #484E5B",
"4%	c #34384A",
"5%	c #414758",
"6%	c #385766",
"7%	c #334B5B",
"8%	c #286270",
"9%	c #363F51",
"0%	c #236C7A",
"a%	c #284D5D",
"b%	c #2B394C",
"c%	c #3B4B5C",
"d%	c #3E4556",
"e%	c #41495A",
"f%	c #385564",
"g%	c #246876",
"h%	c #294152",
"i%	c #344B5B",
"j%	c #3B5262",
"k%	c #385565",
"              . +                                                                                         @                     ",
"              # $                                       % & * * = -                                       ; >                   ",
"                                                  , ' ) ! ~ { ] ] ^ /                                     ( _                   ",
"                                                  : < [ } | ] ] ] ] 1 2                           3 4                           ",
"                                                5 6 7 ] ] ] ] ] ] ] ] 8                           9 0                           ",
"                  a b                         c d e f g h ] ] ] ] ] ] 8                                     i j a               ",
"                k l m n                     o p q r s t u v w ] ] x ] 8                                     y z A               ",
"                B C D E                     F t t G t t t H I J K L ] 8                                     M N O               ",
"                  P Q                     R S t t t t t t t T U V W ] 8                                                     X Y ",
"                                        Z ` t t  .t t t t t t ..+.@.] #.                                                    $.%.",
"                                        &.*.t =.-.;.t t >.,.'.).!.~.{.].                                                        ",
"          ^./.(.                      _.:.t t <.[.}.t t |.1.2.!.!.3.4.                                            3 5.6.        ",
"        7.8.9.0.a.                    b.t t t c.d.t t t G G e.!.!.f.g.  h.h.                                      i.j.k.l.      ",
"        m.n.o.p.q.                    b.t t t t t t t t t r.).!.!.s.@   t.t.                                      u.v.w.        ",
"        x.y.z.A.B.                  C.D.t E.c.F.t t t t t G.!.!.H.I.                                                      J.K.  ",
"          L.C M.                    N.t t O.P.Q.t t t r.R.G.!.!.S.T.                                                    U.V.W.X.",
"                                    N.t Y.Z.`. +t t .+++1.1.!.!.@+@                                                     #+$+%+&+",
"                  ,                 N.t *+P.=+t t t -+;+G.!.!.>+,+  '+)+                                                  M.!+  ",
"                / ~+  ].{+        ]+^+t /+(+E.t t t q s _+!.:+<+  # [+}+l.                                                      ",
"          |+1+  * 2+3+4+5+6+    3+7+8+t t  .t t t t >.9+0+a+b+2 % c+d+e+                                                        ",
"        f+g+h+i+j+k+!.l+] m+  n+o+_+p+H t t t t t q+9+3.r+s+t+u+f+                                                              ",
"        m+] v+!.k+k+3.w+] m+  x+y+G.z+A+t t t t t B+0+C+D+E+F+] G+  / H+                                                  I+J+K+",
"        m+] L+3.k+k+M+] ] N+O+P+Q+q t t t t t t t B+R+S+!.M+w ] T+U+V+W+X+                                                Y+Z+`+",
"        m+] ] M+k+@.{ ] ] N+ @!.|.t t t t t t t t t t .@+@!.M+J ] ] ] ] @@                                                L.#@$@",
"        m+] ] %@&@] ] ] *@=@-@!.;@t t t t t t t t t t t |.!.!.>@] ] ] ] @@                                                    k ",
"        6+,@'@] ] @.@.)@z+G.!.s q t t t t t t t t !@e.t ~@p+!.>@] ] ] {@/                                                     ]@",
"          - ^@/@w .@!@~@t G.!.-+t  +t t t t t t t ;@2.p+t G.!.0+k+] T+(@                                                      _@",
"            :@<@y+q t t [@p+1.H }.}@t t t t t t t t H ,.t G.!.!.k+] |@                                                        k ",
"              x+y+1@t t |.!.R.r.q+t t t t t t t t t t t t '.r !.2@3@4@                                                          ",
"              5@6@1.t t |.!.7@8@;@t t t t t t t t t t t t t e.!.;@9@0@                                                          ",
"              @ s.1.t t |.!.!.a@>.t t t t t t t t t t t t t e.!.;@b@@                                                           ",
"                c@d@e t |.!.7@!@t t t t t t t t t t t t t t 1@8@+@e@Z                                                           ",
"                T.S.f@g@h@!.R.t i@i@t t t t t t t t t t t A+j@..k@l@                                                            ",
"                  m@n@!.!.!.R.t o@o@t t t t t t t t t t t G.1.R.p@q@                                                            ",
"                  @ r@6@!.!.R.t s@s@t t t t t t t t t t t >.+@r.t@u@@                                                           ",
"                      i+o+!.9+>.t }.v@F.t t t t t t t t t t t t q+w@x@                                                          ",
"                y@z@    A@!.!.-+t B@P.C@t t t t t t t t t t t t t !@D@3+                                                        ",
"                E@F@G@  A@!.!.-+t B@P.H@Q.t t t t t t t t t t t t >.R+I@J@K@                                          L@M@N@    ",
"                        O@P@!.Q@>. +i@P.R@S@t t t t t t t t t t t >.a@++j@T@U@V@W@                                  X@Y@Z@`@ #  ",
"                          .#!.!.;@t Q.P.P.R@+#@#t t t t t t t t t t !@'.r.t t t ##$#%#                              &#*#=#-#;#  ",
"                          .#!.!.g@q  +>#P.P.P.<.d.t t t t t t t t t t t t t t t t q+,#'#)#                          !#~#{#]#^#  ",
"                          /#(#!.Q+q+t  +c.P.P.P._#:#}. .t t t t t t t t t t t t t t t ~@<#[#                          !+Q }#_ _ ",
"                            |#n@!.++t t 1#O.2#3#P.P.4#4#c. + .t t t t t t t t t t t t G ,.5#6#%                       k 7#8#9#0#",
"                            @ x+!.r .@t t a# .b#c#P.P.P.P.d#e#t t t t t t t t t t t t f#r r d@@+%                   g#h#i#j#k#l#",
"                              m#f.!.h@T t t t t }.n#o#o#o#Y.t t t t t t t t t t t t t t R.p#e.H.,+                  &#q#  l.r#s#",
"                t#u#@         @ s.!.!...H t t t t t t t t t t t t t t t t t t t t t t t t t e.!.v#@                 &#w#x#y#l.z#",
"                j#A#G@          B#!.!.!.C#H G B+>.t t t t t t t t t t t t t t t t t t D#E#E#F#!.S.T.                &#G#H#I#y#l.",
"                                J#K#!.!.!.L#M#8@p+q t t t t t t q+N#O#P#t t t t t t t Q#R#S#T#!.S.T.                c+U#V#H#W#  ",
"                              @ s.M+!.!.!.!.).A+f#t t t t t t t q P#X#Y#t t Z#`#`#`#`# $.$+$!.!.S.T.                  @$#$$$%$&$",
"                        *$=$-$@ s.r '.!.!.!.!.h@!@t ;$).9+t t t t >.>$,$t '$)$!$!$!$!$!$!$~${$!.S.T.                    ]$Q Q Q ",
"                        ^$/$($@ s.1.r._+!.+.!.!.2.).~@A+r '.t t t t t t _$:$!$<$[$[$[$[$[$[$}$|$6@1$                            ",
"                        B j#y@@ 2$1.t f#2.3$4$V !.!.y+;+T ~@t t t t t t 5$!$6$7$8$8$8$8$8$8$8$8$9$0$a$a$b$                      ",
"                                T.p@H t R.1.K#4$+.!.!.!.!.7@j@>.t t t t 5$!$c$8$8$8$8$8$8$8$8$8$8$8$8$8$d$e$b$                  ",
"                                T.S...t t R.1.K#0+l+!.!.!.!.!.f$s s s s g$!$c$8$8$8$8$8$8$8$8$8$8$8$8$8$8$8$h$i$j$              ",
"                                k$l$1.G t t m$n$3$o$!.!.!.!.!.!.!.!.!.!.p$q$r$s$8$8$8$8$8$8$8$8$8$8$8$8$8$8$8$8$t$u$            ",
"                                  ,+!.8@G B+v$] ] @.w$x$!.!.!.!.!.!.!.!.!.p$y$z$A$8$8$8$B$B$8$8$8$8$8$8$8$8$8$8$8$C$D$          ",
"                                  E$F$!.G$v$] ] ] ] H$I$J$K$!.!.!.!.!.!.!.!.L$M$N$r$8$8$O$P$Q$Q$R$8$8$8$8$8$8$8$S$T$U$V$        ",
"                                    E$W$X$] ] T+] ] T+Y$  ,+Z$Z$`$S.H.H.H.H.H.H. %.%+%@%8$#%$%%%&%*%*%&%&%&%*%=%-%;%8$d$        ",
"                                      >%,%'%T+)%^ !%|+~%{%        ]%]%]%]%]%]%]%]%]%^%/%(%_%:%<%[%}%|%1%2%1%3%4%-%5%8$6%        ",
"                                            7%8%- 9%    0%                              , % a%b%c%0$d%s$s$8$8$8$S$e%f%@         ",
"                                                                                                  g%h%h%h%i%j%j%j%k%            ",
"                                                                                                                                ",
"                                                                                                                                ",
"                                                                                                                                "};
