/* XPM */
static char * wall1_xpm[] = {
"64 64 668 2",
"  	c #6D584F",
". 	c #705A51",
"+ 	c #705B51",
"@ 	c #6F5A51",
"# 	c #6D5950",
"$ 	c #68554C",
"% 	c #64534B",
"& 	c #6B5850",
"* 	c #584840",
"= 	c #473C35",
"- 	c #68544C",
"; 	c #69534A",
"> 	c #675148",
", 	c #665047",
"' 	c #654F47",
") 	c #685249",
"! 	c #6A544A",
"~ 	c #6A544B",
"{ 	c #514039",
"] 	c #55443D",
"^ 	c #53423A",
"/ 	c #55443C",
"( 	c #5E4A42",
"_ 	c #634C43",
": 	c #624B42",
"< 	c #5E4840",
"[ 	c #534038",
"} 	c #3D332D",
"| 	c #625048",
"1 	c #5E4941",
"2 	c #5F4A41",
"3 	c #604A42",
"4 	c #5A473E",
"5 	c #483C35",
"6 	c #5C4A43",
"7 	c #58453E",
"8 	c #58463E",
"9 	c #59463F",
"0 	c #57453E",
"a 	c #50413A",
"b 	c #5B4841",
"c 	c #5B4840",
"d 	c #4E3D35",
"e 	c #50423B",
"f 	c #5A4740",
"g 	c #56443D",
"h 	c #54423A",
"i 	c #4C3D36",
"j 	c #58463F",
"k 	c #4F3F38",
"l 	c #4D3B34",
"m 	c #5C433A",
"n 	c #5D443B",
"o 	c #5C443B",
"p 	c #5C433B",
"q 	c #59423A",
"r 	c #56423A",
"s 	c #533E36",
"t 	c #5D473F",
"u 	c #634D45",
"v 	c #51413A",
"w 	c #573F37",
"x 	c #594037",
"y 	c #5A4038",
"z 	c #583F37",
"A 	c #584037",
"B 	c #573E36",
"C 	c #553D35",
"D 	c #533C35",
"E 	c #564038",
"F 	c #513E36",
"G 	c #523C35",
"H 	c #543D35",
"I 	c #5B4138",
"J 	c #513B34",
"K 	c #3A2F28",
"L 	c #544039",
"M 	c #533C34",
"N 	c #563E36",
"O 	c #553E36",
"P 	c #473932",
"Q 	c #503B34",
"R 	c #4F3932",
"S 	c #503A33",
"T 	c #4B3A32",
"U 	c #4F3A33",
"V 	c #4A372F",
"W 	c #45362F",
"X 	c #4D3831",
"Y 	c #513C35",
"Z 	c #4B3932",
"` 	c #4F3B34",
" .	c #483730",
"..	c #4E3831",
"+.	c #493730",
"@.	c #49352E",
"#.	c #5C473F",
"$.	c #44362E",
"%.	c #583F36",
"&.	c #593F37",
"*.	c #543C34",
"=.	c #503A32",
"-.	c #4C3730",
";.	c #4A362F",
">.	c #4C3831",
",.	c #513A33",
"'.	c #4D3730",
").	c #2C221B",
"!.	c #43322B",
"~.	c #4E3931",
"{.	c #523B33",
"].	c #543C35",
"^.	c #3F302A",
"/.	c #4D3731",
"(.	c #46342D",
"_.	c #47342D",
":.	c #48342E",
"<.	c #402F29",
"[.	c #332922",
"}.	c #4B3831",
"|.	c #4F3A32",
"1.	c #4E3932",
"2.	c #48352E",
"3.	c #49362F",
"4.	c #4E3B34",
"5.	c #372B24",
"6.	c #533B34",
"7.	c #523B34",
"8.	c #47332D",
"9.	c #493630",
"0.	c #49352F",
"a.	c #503932",
"b.	c #2F251E",
"c.	c #3F322C",
"d.	c #42312A",
"e.	c #4B3630",
"f.	c #47362F",
"g.	c #46332D",
"h.	c #4C3932",
"i.	c #42312B",
"j.	c #45322C",
"k.	c #372923",
"l.	c #3C3029",
"m.	c #4E3B33",
"n.	c #523C34",
"o.	c #48352F",
"p.	c #43322C",
"q.	c #483630",
"r.	c #342822",
"s.	c #47342E",
"t.	c #45332C",
"u.	c #312720",
"v.	c #46352F",
"w.	c #3F2F29",
"x.	c #412F29",
"y.	c #40312B",
"z.	c #45332D",
"A.	c #43312B",
"B.	c #3B2B26",
"C.	c #382C26",
"D.	c #4B3730",
"E.	c #4B362F",
"F.	c #41312A",
"G.	c #332821",
"H.	c #44322C",
"I.	c #3D2D27",
"J.	c #41302A",
"K.	c #413029",
"L.	c #312620",
"M.	c #45342E",
"N.	c #3F2E28",
"O.	c #40302A",
"P.	c #31251F",
"Q.	c #362B25",
"R.	c #44322B",
"S.	c #362823",
"T.	c #332923",
"U.	c #3A2B26",
"V.	c #44312B",
"W.	c #2F251F",
"X.	c #42302A",
"Y.	c #3E2E28",
"Z.	c #372C26",
"`.	c #4B372F",
" +	c #342A23",
".+	c #3B2C26",
"++	c #352721",
"@+	c #2C241E",
"#+	c #44332D",
"$+	c #362822",
"%+	c #3F2F2A",
"&+	c #302620",
"*+	c #46332C",
"=+	c #48342D",
"-+	c #2E251F",
";+	c #3C2D27",
">+	c #2D2520",
",+	c #382A24",
"'+	c #2B221D",
")+	c #43332D",
"!+	c #2C231D",
"~+	c #352822",
"{+	c #2A221C",
"]+	c #3C2C26",
"^+	c #332A25",
"/+	c #271E19",
"(+	c #3D2E28",
"_+	c #3A2B25",
":+	c #412F2A",
"<+	c #261E18",
"[+	c #322620",
"}+	c #45322B",
"|+	c #32251F",
"1+	c #332620",
"2+	c #30241E",
"3+	c #251D17",
"4+	c #30241F",
"5+	c #2A201A",
"6+	c #30251F",
"7+	c #2F231E",
"8+	c #291F19",
"9+	c #2F241E",
"0+	c #2E231D",
"a+	c #392A24",
"b+	c #3C2C25",
"c+	c #3D2D26",
"d+	c #3E2D26",
"e+	c #382A23",
"f+	c #342720",
"g+	c #3B2C25",
"h+	c #3F2E27",
"i+	c #402F28",
"j+	c #412F28",
"k+	c #3D2D25",
"l+	c #413028",
"m+	c #5D4B43",
"n+	c #5E4940",
"o+	c #5C483E",
"p+	c #59443C",
"q+	c #59443B",
"r+	c #5A453C",
"s+	c #57433A",
"t+	c #55423A",
"u+	c #57463E",
"v+	c #55433C",
"w+	c #514038",
"x+	c #524039",
"y+	c #504038",
"z+	c #4D3D35",
"A+	c #3B2D27",
"B+	c #4E413A",
"C+	c #52443D",
"D+	c #4E4039",
"E+	c #473A33",
"F+	c #30261F",
"G+	c #322923",
"H+	c #4F3D35",
"I+	c #4B3B34",
"J+	c #56443C",
"K+	c #54423B",
"L+	c #56463E",
"M+	c #57453D",
"N+	c #524038",
"O+	c #45342C",
"P+	c #483931",
"Q+	c #54433B",
"R+	c #493A32",
"S+	c #3F322B",
"T+	c #4B3C34",
"U+	c #403129",
"V+	c #4A3931",
"W+	c #524139",
"X+	c #594841",
"Y+	c #56453D",
"Z+	c #544239",
"`+	c #46352D",
" @	c #32261F",
".@	c #3D3029",
"+@	c #55433B",
"@@	c #534139",
"#@	c #46362E",
"$@	c #5E453C",
"%@	c #5B4239",
"&@	c #594038",
"*@	c #563F37",
"=@	c #4F3C34",
"-@	c #584139",
";@	c #533D35",
">@	c #3E2F28",
",@	c #483B34",
"'@	c #574139",
")@	c #574038",
"!@	c #513E37",
"~@	c #543F36",
"{@	c #57443C",
"]@	c #503B33",
"^@	c #3F3029",
"/@	c #594139",
"(@	c #523F37",
"_@	c #5A423A",
":@	c #483B35",
"<@	c #604D45",
"[@	c #5A4138",
"}@	c #5C4239",
"|@	c #5C4139",
"1@	c #543E36",
"2@	c #4E3830",
"3@	c #513B33",
"4@	c #3D302A",
"5@	c #563D35",
"6@	c #563E35",
"7@	c #3C2E26",
"8@	c #4D3B33",
"9@	c #5D433A",
"0@	c #4F3B32",
"a@	c #5A4037",
"b@	c #573F36",
"c@	c #553C34",
"d@	c #513C34",
"e@	c #584038",
"f@	c #4D3830",
"g@	c #48362E",
"h@	c #362B24",
"i@	c #47362E",
"j@	c #342721",
"k@	c #423129",
"l@	c #4D3931",
"m@	c #2C221C",
"n@	c #382D27",
"o@	c #4C3731",
"p@	c #2D231C",
"q@	c #473730",
"r@	c #4C372F",
"s@	c #4A362E",
"t@	c #48352D",
"u@	c #3F332C",
"v@	c #44352F",
"w@	c #4A352F",
"x@	c #3A2F29",
"y@	c #45342D",
"z@	c #2B211B",
"A@	c #40332C",
"B@	c #3E2D28",
"C@	c #271E18",
"D@	c #41342D",
"E@	c #4D3D36",
"F@	c #332720",
"G@	c #3D322B",
"H@	c #4D3932",
"I@	c #2A201B",
"J@	c #3D322C",
"K@	c #47352E",
"L@	c #382E28",
"M@	c #3A2F2A",
"N@	c #3D2C27",
"O@	c #332621",
"P@	c #312822",
"Q@	c #29201A",
"R@	c #382924",
"S@	c #3B2B25",
"T@	c #332721",
"U@	c #2C211B",
"V@	c #2C221D",
"W@	c #291F1A",
"X@	c #241D17",
"Y@	c #282019",
"Z@	c #3D312B",
"`@	c #2F2620",
" #	c #241C17",
".#	c #271F19",
"+#	c #342B24",
"@#	c #3C312A",
"##	c #362C26",
"$#	c #352C26",
"%#	c #3A312B",
"&#	c #312821",
"*#	c #3B3029",
"=#	c #342A24",
"-#	c #231C16",
";#	c #392F29",
">#	c #3B2F28",
",#	c #352A23",
"'#	c #352B25",
")#	c #392E27",
"!#	c #382D26",
"~#	c #392E28",
"{#	c #3B312A",
"]#	c #372D27",
"^#	c #2E251E",
"/#	c #382E27",
"(#	c #322721",
"_#	c #2D251F",
":#	c #322822",
"<#	c #372C25",
"[#	c #3D312A",
"}#	c #3E332C",
"|#	c #3C312B",
"1#	c #5B463E",
"2#	c #503E36",
"3#	c #534039",
"4#	c #58433B",
"5#	c #3D2F28",
"6#	c #4A3C35",
"7#	c #5A4942",
"8#	c #58453D",
"9#	c #58443D",
"0#	c #58443C",
"a#	c #56433B",
"b#	c #54413A",
"c#	c #523F38",
"d#	c #4A3B34",
"e#	c #5A463F",
"f#	c #57433C",
"g#	c #5A463E",
"h#	c #59453D",
"i#	c #57433B",
"j#	c #56423B",
"k#	c #4B3A33",
"l#	c #3A2E28",
"m#	c #51433C",
"n#	c #5A443C",
"o#	c #53423B",
"p#	c #5F4A42",
"q#	c #604B42",
"r#	c #5F4941",
"s#	c #5D4840",
"t#	c #5A453D",
"u#	c #4C3C35",
"v#	c #5C473E",
"w#	c #5C463E",
"x#	c #543F37",
"y#	c #504139",
"z#	c #513F38",
"A#	c #352923",
"B#	c #4D4039",
"C#	c #5C4A42",
"D#	c #59433C",
"E#	c #58433C",
"F#	c #59443D",
"G#	c #523E36",
"H#	c #49362E",
"I#	c #4F3931",
"J#	c #483831",
"K#	c #513D36",
"L#	c #4E3A33",
"M#	c #382B24",
"N#	c #483932",
"O#	c #543D36",
"P#	c #564138",
"Q#	c #44312A",
"R#	c #3B2C24",
"S#	c #42332B",
"T#	c #44352E",
"U#	c #4F3B33",
"V#	c #3A2D27",
"W#	c #4B3931",
"X#	c #372922",
"Y#	c #42342C",
"Z#	c #30251E",
"`#	c #3D2E27",
" $	c #48362F",
".$	c #3B2B24",
"+$	c #3C2F28",
"@$	c #43312A",
"#$	c #372D26",
"$$	c #493831",
"%$	c #46352E",
"&$	c #352A24",
"*$	c #45352F",
"=$	c #403029",
"-$	c #443832",
";$	c #44342D",
">$	c #2F2721",
",$	c #42332E",
"'$	c #3E322C",
")$	c #46342E",
"!$	c #42332D",
"~$	c #4E3832",
"{$	c #423029",
"]$	c #40322D",
"^$	c #3C302A",
"/$	c #41322C",
"($	c #3F312B",
"_$	c #463630",
":$	c #2C251F",
"<$	c #3B302A",
"[$	c #44322D",
"}$	c #42312C",
"|$	c #2D231D",
"1$	c #2B241F",
"2$	c #40322C",
"3$	c #281F19",
"4$	c #2E241F",
"5$	c #2D221C",
"6$	c #28211B",
"7$	c #3C2E29",
"8$	c #352A25",
"9$	c #2D221D",
"0$	c #221C16",
"a$	c #2C211C",
"b$	c #392A25",
"c$	c #2B201B",
"d$	c #2A211B",
"e$	c #322520",
"f$	c #2D2620",
"g$	c #382C27",
"h$	c #322720",
"i$	c #312721",
"j$	c #352B24",
"k$	c #332822",
"l$	c #352922",
"m$	c #342922",
"n$	c #31261F",
"o$	c #2E241D",
"p$	c #2E241E",
"q$	c #2F241D",
"r$	c #4B3C35",
"s$	c #45372F",
"t$	c #53413A",
"u$	c #4F3E36",
"v$	c #4F3F37",
"w$	c #59463E",
"x$	c #51423A",
"y$	c #4A3D36",
"z$	c #3F342D",
"A$	c #29211B",
"B$	c #342C26",
"C$	c #503E37",
"D$	c #52423A",
"E$	c #4F4038",
"F$	c #4F3E37",
"G$	c #4D3C34",
"H$	c #3E312A",
"I$	c #513F37",
"J$	c #503F37",
"K$	c #564139",
"L$	c #564039",
"M$	c #4E3C35",
"N$	c #57423A",
"O$	c #553F38",
"P$	c #503D36",
"Q$	c #493D37",
"R$	c #4D3E38",
"S$	c #554139",
"T$	c #503C35",
"U$	c #42342D",
"V$	c #56433C",
"W$	c #533F37",
"X$	c #58423A",
"Y$	c #554038",
"Z$	c #543D34",
"`$	c #4E3A32",
" %	c #3E3028",
".%	c #523D35",
"+%	c #553E35",
"@%	c #342821",
"#%	c #372B25",
"$%	c #42332C",
"%%	c #332B25",
"&%	c #41342F",
"*%	c #362923",
"=%	c #493731",
"-%	c #3C2D28",
";%	c #463530",
">%	c #332A24",
",%	c #3C2C27",
"'%	c #28201A",
")%	c #46362F",
"!%	c #42302B",
"~%	c #261F19",
"{%	c #302721",
"]%	c #3A2C26",
"^%	c #3E302A",
"/%	c #352722",
"(%	c #372823",
"_%	c #382923",
":%	c #281F1A",
"<%	c #2B211C",
"[%	c #251E18",
"}%	c #27211B",
"|%	c #27201A",
"1%	c #2B221C",
"2%	c #221B16",
"3%	c #53443C",
"4%	c #53433C",
"5%	c #52433B",
"6%	c #52423B",
"7%	c #4D3E37",
"8%	c #4C3E37",
"9%	c #4A3C36",
"0%	c #463832",
"a%	c #423730",
"b%	c #4B3D37",
"c%	c #493B34",
"d%	c #4E3F38",
"e%	c #4E3E37",
"f%	c #4F413A",
"g%	c #483A33",
"h%	c #493B35",
"i%	c #4C3D37",
"j%	c #4A3B35",
"k%	c #463A34",
"l%	c #40342E",
"m%	c #473A34",
"n%	c #483A34",
"o%	c #433730",
"p%	c #372E28",
"q%	c #473933",
"r%	c #4B3E37",
"s%	c #4D3F39",
"t%	c #453831",
"u%	c #453731",
"v%	c #443731",
"w%	c #443730",
"x%	c #463932",
"y%	c #473C36",
"z%	c #493C36",
"A%	c #3D2F29",
"B%	c #553F37",
"C%	c #523D36",
"D%	c #2B231C",
"E%	c #563F38",
"F%	c #5B453C",
"G%	c #513D35",
"H%	c #5B443C",
"I%	c #543E37",
"J%	c #4E3A34",
"K%	c #47352F",
"L%	c #372A24",
"M%	c #433831",
"N%	c #4F3C35",
"O%	c #43362F",
"P%	c #4F3B35",
"Q%	c #523E37",
"R%	c #41352F",
"S%	c #4D3C35",
"T%	c #4C3830",
"U%	c #594138",
"V%	c #4C3933",
"W%	c #47332C",
"X%	c #392D27",
"Y%	c #4B362E",
"Z%	c #4A3932",
"`%	c #382C25",
" &	c #362A24",
".&	c #513A32",
"+&	c #493932",
"@&	c #4A3730",
"#&	c #4A3831",
"$&	c #3E2E27",
"%&	c #4A352E",
"&&	c #312722",
"*&	c #211B15",
"=&	c #302621",
"-&	c #2D241E",
";&	c #43342E",
">&	c #403832",
",&	c #2F2621",
"'&	c #42322C",
")&	c #3E2D27",
"!&	c #3D302B",
"~&	c #342621",
"{&	c #29201B",
"]&	c #3E2F29",
"^&	c #372924",
"/&	c #201A14",
"(&	c #241C16",
"_&	c #221B15",
"  . + . @ # $ % & * = - ; > , ' , , > ) ; ! ~ { ] ^ / ( _ : < [ } | 1 2 3 3 3 3 2 4 5 6 7 8 9 0 a b c 9 d e b f 0 g h i j k 0 l ",
"m n n o p q r s t u v : w x y x z A z B C D E F G H w I I y C J K L M C N N N N C O P Q R R R S T U R R V W U R R X Y Z `  .J ..",
"B z z B M X +.@.U #.$.O %.x y &.%.B N *.=.-.;.>.@.=.M H C M ,.'.).!.~.{.*.C C ].{.S ^.;./.......Q (._.:.<.[.}.R X |.R R R 1.U 1.",
"*.*.{.R -.2.3.W :.4.5.H B N *.6.7.{.{.,.-.2.8.8.9.0...a.a.R R -.b.c.d.e.X R ..X e.f.g.8.:.0.0.0.;.h.i.j.k.l.m.1.;.R R R R R X ..",
"n.7...e.;.:.8.o.p.q.r.S {.,.=.a.a.a.a.R -.s.g.g.g.t.j.-...R R -.u.v.p.w.x.g._.j.s.y.g.g.g.g.g.g.g.8.z.A.B.C.-.R D.D.R R R R D.'.",
"6.6.X E.E.0._.g.s.F.G.1.a.a.a.a.a.a.a.1.;.8.g.g.H.I.H.J.K.-.1.-.L.M.g.g.g.N.g.J.O.p.g.g.g.g.g.g.g.g.g.N.P.Q.D.R R R.1...R R '.;.",
"6.,.-.E.E.0.s.g.g.S.T.1.a.a.a...X X X e.:.g.g.g.U.z.g.g.g.<.V.@.W.z.g.g.g.N.X.Y.^.g.g.g.g.g.g.g.g.g.g.g.k.Z.3...'.-.@.`.R R R @.",
"=.X E.E.;.0.s.g.g.X. +1.a.a...;.:.:.2.s.g.j..+I.<.g.g.g.g.8.j.++@+#+g.g.g.H.$+%+g.g.g.g.g.g.g.g.g.g.g.g..+&+g.@.*+R.;.`.R R ..;.",
":.=+=+_.8.g.g.g.g.X.-+s.2.:._.g.g.g.g.g.I.w.A.<.;+g.g.g.g.g.g.N.>+#+g.g.g.g.,+p.g.g.g.g.g.g.g.g.g.g.g.g..+'+y.g.:.t.)+j.2.:.:.8.",
"g.8.8.8.8.g.g.g.g.X.!+t.8.8.8.8.8.g.j.~+J.g.g.g.<.H.g.g.g.g.g.A.{+p.g.g.g.g.B.V.g.g.g.g.g.g.8.s.:.:.s.s.]+^+s._.:.2.j.R.2.:.s.8.",
"]+<.J.J.J.J.J.J.J.I./+(+J.J.J.J.J.x.$+]+<.<.<.<.I._+<.<.<.x.:+Y.<+;+J.J.J.J.I..+<.<.<.<.<.X.V.j.*+g.*+*+]+[+A.t._.@.@.}+;.:.*+A.",
").|+1+1+1+1+1+1+[+2+3+4+P.P.P.P.4+4+5+6+2+7+7+2+4+8+2+P.P.P.P.2+3+9+P.P.P.P.P.0+P.2+7+4+1+$+a+b+c+d+d+c+e+f+g+c+h+i+j+k+l+j+d+e+",
"m+n+o+p+q+r+q+r+s+t+u+v+w+x+y+z+A+B+C+D+E+F+G+a / H+I+/ J+K+h w+L+M+N+w+w+O+P+8 Q+R+9+S+T+U+V+^ h W+W+W+Q+X+Y+Z+`+ @.@u+u++@@@#@",
"$@m m m m m m m %@&@w w *@*@*@o =@-@;@J 1.>@,@'@*@)@!@-@w w w w -@w w w w ~@{@)@N ]@^@N+/@q (@A w w w w w w w _@O+:@<@/@w w w C ",
"[@I }@}@}@}@|@I y %.N N N N N E 1@2@C 3@-.,+4@M N =.;@N N N N N N 5@5@5@6@2.1@5@*.X 7@8@z 9@0@y B N N N N N N |.S+p+N N N B z %.",
"C z a@y y x z b@N C C C C c@d@e@6@f@g@D.;.$+h@|.{.C N 5@C *.*.*.M M 7.7.2@i@6.3@~.@.j@Z N %@e@I B N N N N N C k@s C C C 5@B z N ",
"=.{.M *.*.M 6.7.{.{.{.{.{.l@H M M M 7...i+m@n@U 5@B C {.=.R ........X '.w.o@-.E.0.]+p@q@7.N {.C 7.7.6.M M {.,.b+~.R =.=.a.,.M {.",
"R R r@s@t@_.=+t@E.~.R a.-.U a.=.S =.a.-.s.3+u@S M C M 1.E.@.2.2.2.2.2.t.J.:.s._.a+J.2+v@R 3@s@-.;.;.e.D.e.E.w@w.x@d.2.2.2.;...R ",
"y@*+X 1.R R R R -.@.;.@.R...R R R R 1.e._.z@A@1.a.,.~.0.8.g.g.g.g.g.g.g.i.g.g.N.Y.B@C@D@>./.(.s.8.8.8.8.8.8.g.g.g.V.Y.g.g.8.@.e.",
"E@~.R R R R R R R R ..@.F@X R R R R ..;.g.z@G@H@R ..;.8.g.g.g.g.g.g.g.g.X.N.<.j..+N.I@J@K@:.<.g.g.g.g.g.g.g.g.g.g.g.Y.j.g.g.g.8.",
":.;.-./.X X ..X X -.;.2.Y.H...1.1...-.@.g.P.L@9.-.;.s.g.g.g.g.g.g.g.g.g.<.g.g.g.w.A.5+M@z.g.N@J.g.g.g.g.g.g.g.g.g.g.g.w.A.g.g.g.",
"g.g.g.g.g.g.g.g.g.g.g.g.j.$+8.8.8.8.g.g.z.O@P@#+g.g.g.g.g.g.g.g.g.g.g.w.g.g.g.X.A.A.5+n@j.g._+J.w.g.g.g.g.g.g.g.g.g.g.g.N.z.g.g.",
"w.Y.Y.Y.Y.Y.Y.Y.B@I.I.]+Y.|+N.N.N.Y.Y.Y.Y.7+Q@;+N.N.N.N.Y.Y.Y.Y.Y.Y.Y.Y.Y.I.,+_+Y.]+/+9+I.Y.R@a+S@I.Y.Y.Y.Y.Y.Y.Y.Y.Y.Y.]+.+Y.Y.",
"~+j@j@j@T@F@1+1+7+I@I@U@T@[+V@j@j@T@T@j@O@W@X@[+j@j@j@j@j@j@1+P.9+m@P.T@1+0+j@j@j@1+<+Y@[+j@j@W@O@2+1+1+7+m@P.1+F@T@T@T@m@[+j@O@",
"Z@n@Z.C.Q.W.Z.n@`@ #.#+#@#x@L@L@##Z.!+T.##$#%#[.&#*#Z@G@*#L@=#@+-#@+;#>#,#'#)#!#n@~#{#]#^# +Q.n@/#(#m@_#-#{+]#:#p@<#*#[#}#|###^#",
"#.#.#.#.1#2#3#4#H+5#6#7#8#9#0#a#b#c#d#e#f#g v+I+x+g#h#0#i#j#L k#l#m#9 n#o#p#q#2 r#s#t#t#u#v#t t w#x#y#z#A#B#C##.W 8#t#D#E#p+F#G#",
"N N N N N N H#N I#i+J#K#6.6.6.6.{.7.L#G 7.7.7._.6.6.6.6.6.6.7.@.M#N#O#N ]@6@6@6@6@5@6@6@P#=@N 6@6@=.d@R $+A@K#C M `+6@6@5@5@C C ",
"N N N N C {.3@=.Q#R#S#m.7.6.6.6.7.7.{.=+{.{.{.`.6.6.6.6.6.6.7.=+1+T#S f@n.H H H H H H H H ;@U#I#I#=.7...$+V#W#{.M -.=.M M M 6.{.",
"N b@B {.I#N 5@C r@X#Y#Z =.,.3@,.S S =.@...R f@X =.,.7.6.6.6.,.*+Z#`#s@;.R {.{.{.{.{.{.{.{.{.M L#@.S =...$+Z. $R =.=._.S =.=.=.a.",
"C B B *.R M 7.3@s@.$+$ .-.X ..X X X X -.R.-.8.-.X ..R S ,.=...@$0+#$$$R E.a.a.a.a.a.a.a.a.R a.U E.J.;.X $+Q.%$~.R R @$}+R R R R ",
",.,.R e.2./...R _.X#&$*$;.e.D.e.e.e.g.j.=$w@c+E.e.e.-.-.-.-.D.x.m@-$h...E.D.1...X X X X X ..1.X D.1.@.E.$+Q.;$X R R _.-.*+1...X ",
"R R ;.8.8.:.0.w@X.P.>$,$2.;.;.;.;._.g.;.w@R.C.0.0.;.;.e.e.e.E.N.z@'$)$;.e.V.j.0.0.0.0.0.w@;.-.X 2.R E.;.$+'#!$;.X ~$*+{$;+e.;.@.",
"R R E.g.g.g.g.8.Y.0+>+]$_.:.2.@.0.@$0.2.:.:.)$j.s.:.0.w@;.;.;.c+5+^$#+8.s.V.z.8.g.g.8.8.8.s.:.;.(....._.j@=#/$s.0.8.R.($_$i.A.g.",
"..-.2.g.g.g.g.g.B@0+:$]$z.g.8.8.d.t._.8.8.g.g.N.g.8.s.:.:.:.:.a+Q@<$[$g.g.g.H.g.g.g.g.g.g.g.g.s.t.:.e.:.P.=#y.g.X.I.t.g.}$g.J.A.",
"g.g.g.g.g.g.g.g.B@|$1$2$z.g.g.g.w.g.g.g.g.g.g.H.<.g.g.g.g.g.g.$+3$M@p.g.g.g.g.g.g.g.g.g.g.g.g.g.g.<.g.H.0+4$.+:+Y.g.g.g.<.g.g.Y.",
"g.g.g.g.g.g.g.g.I.5$6$7$j.g.g.g.:+A.g.g.g.g.g.g.B@A.g.g.g.g.z.k.I@8$J.g.g.g.g.g.g.g.g.g.g.g.g.g.g.w.j.A.9$X@T.J.g.g.g.g.A.J.g.z.",
".+B.B.U.U.U.U._+[+3$0$9+_+B.B.B._+a$a+U.B._+_+U.b$c$_+U.U.U._+j@Q@d$$+B.B.U.U.B.B._+b$_+U.B.U.B.B._+e$,+Q@f$g$B.U.B.B.U.B.$+_+_+",
"0+z@6+6+|$9+h$r.h$i$L@j$,#(#m@9+(#k$`@W.5+C@C@3$|$b.b.P.h$G.r.l$m$ +G.F@h$h$n$Z#o$Q@3+z@n$(#p@9+L.9+o$p$b.u.b.6+Z#q$9+n$T@P.m@I@",
"v r$s$T N#8 t$W+t$v+0 / ^ K+u$v$w$K+x$y$z$A$B$5 y#+@g +@a#t+a#h t++@t+N+C$u$u$z#D$T#<#E$F$G$H$@@K+K+g 9 8 8 / +@t+t+@@I$J$F$E@2$",
"K$L$b#M$2#4#E E E L$L$L$E E '@!@N$E O$P$M.L.Q$R$S$E E E E E E E E E E E E E E O$T$(@U$V$'@E W$2#X$Y$Y$K$K$L$E E E E E E E E O$-.",
"5@6@6@C |.N N N N N 6@N 6@N N N 3@Z$H {.;.P.G@Z J ].C C C C Z$C C C C C H *.M 3@a.`$ %E N 6@6@.%+%5@5@5@5@5@5@5@5@5@6@N N N N M ",
"*.H H C I#C C C C C C C C C C C C 3@{.,.;.0+Q. .1.,.{.{.3@~.3@3@3@,.,.S a.R R R R @.M#;@].].H H n.3@6.*.*.*.*.*.*.H H C C C ].,.",
",.3@{.{.~.7.7.7.7.7.7.7.7.7.6.6.7.{...t.=+m@#$f...R a.R ..w@X E.-.1...X -.e.e.D.-.*+@%U#3@3@{.{.3@3@=.~...I#I#=.,.,.3@{.{.3@a.-.",
"R a.a.=.f@=.=.=.=.=.=.=.=.=.S S S =.a.>.E.|+&+p.X R R 1.;.N.j.0.;.;.;.0.:.s._.s.:.x.b.h.a.a.a.a.a.a.R R R R R -.;.{$!.@.@.X.X.<.",
"X X ..1.D.1.X /.X ..1.1...~.R R 1.R R ..*+9+@+#%=+..X @.<.p.g.8.8.8.8.g.g.g.g.g.g.Y.!+Z R R R R R 1.-.e.D.-.e.;.0.:.)$j..+H.s.8.",
"$%i.R.*+g.;.0.2.2.0.;.;.;.;.D.D.e.D.-.D.X.m@%%&%(+*%d.s.8.g.g.g.g.g.g.g.g.g.g.g.g.I.{+=%1.R R 1...-.0.:.:.:.s.8.g.g.g.A.-%g.g.g.",
";%g.g.w.z._.g.g.g.8.8._.8.s.s.s.s.s._.g.A..#>%c.z.#+#+g.g.g.g.g.g.g.g.g.g.g.g.g.g.,%'%)%-.X /.D.;.2._.g.g.g.g.g.g.g.g.A.H.g.g.g.",
"g.g.g.i.Y.g.g.g.g.g.g.g.g.g.g.g.g.g.g.g.!%W@>%4@H.g.A.g.g.g.g.g.g.g.g.g.g.g.g.g.g.,%~%!$:.:.:.s.8.g.g.g.g.g.g.g.g.g.g.!%g.g.g.g.",
"_+R@]+A._+j.g.g.g.g.g.g.g.g.g.g.g.g.g.g.J..#{%]%A.g.X.g.g.g.g.g.g.g.g.g.g.g.g.g.g.]+X@^%g.g.g.g.g.g.g.g.g.g.g.g.g.g.H.,%N.g.g.g.",
"(+.+]+]+.+$+.+.+]+]+]+.+.+.+]+]+]+]+]+]+a+/+/+9+a+B./%]+]+]+]+]+.+.+.+.+.+.+]+]+.+O@-#r..+]+]+]+]+]+]+]+.+S@(%O@k.,+b$]+S@_%_+.+",
"d$Q@Q@Q@Q@.#3$:%:%Q@Q@:%C@3$Q@z@<%d$5+5+Q@[%}%|%3$:%Q@5+Q@Q@Q@Q@W@3$Q@I@Q@:%W@Q@Q@3$6$1%Q@Q@Q@Q@Q@Q@Q@Q@W@3+2%-#3$Q@Q@Q@Q@Q@.#:%",
"C+3%4%5%6%a 7%c.8%9%0%,#.#a%b%c%c%i 7%d%e%a f%g%h%7%i%j%c%,@k%l%m@>$m%n%o%p%u@q%9%r%s%9%q%0%t%u%v%w%0%x%E+,@A#>$y%z%,@h%c%E+E+A%",
"E *@B%B%B%B%B%Y$K$C%L#y@D%L+x#B%B%B%B%E%E%E F%G%H%E B%I%1@C%J%K%L%M%{ N%` l O%C$P%T$K#Q%Q%Q%Q%Q%Q%K#K#T$` K#t.R%a 4.4.` ` ` 4.;.",
"N N N N N N N M I#*.,.D.1%S%*.C 5@5@6@6@N N N T%U%6@5@5@C ].=.e.a+>#V%R R R X %$R R R R R R R R R R R R R R W%X%V%R R R R R R R ",
"6@6@6@6@6@N N Y%3@*.,.E.z@Z%{.M *.*.H H H C C U#N C H H *.{.S -.a+`%}.R R R R X }+R R R R R R R R R R R R R *+ &h.R R R R R R 1.",
"*.H H H H H .&X G {.=.;.d$Z%=.S ,.,.3@{.{.{.=.Q {.{.{.3@,.,.R -.a+#%}.R R R R R E.@$R R R R 1.~.~.1.1.1.~.X V.,#h.R R R ../.-.e.",
",.,.3@{.{.{...{.E.=.~.:.Q@+&R R R R a.a.=.a.@&S R ~.R a.a.R R D.e+ &#&R R R R R R @.t.E.;.@.:.E.E.e.D.-.e.;.<.k$Z R R ~.-.0.2.:.",
"-.X ....X ..`.R s@1.-.t..#J#R R R R 1.1.-.D.1.-.e.;.-.~.R R X w@k.T.q.1.R R R 1.X -.o.@.w@2.:.s.s.:.:.:.:.s.$&{%=%....-.0.s.g.g.",
"s.2.0.@.2.0.g.;.=+E.@.R.X@!$..R X %&:.:.;.E.w@2.:.:.0.-.X X e.:.~+&&M.-...1.X D.w@2.:.g.A.V.g.g.g.g.g.g.g.g.I.-+v.E.e.0.s.g.g.g.",
"g.g.g.g.g.g.N.X.:.s.8.A.*&A#H.:.s.:.s.s.:._.8.g.g.g.s.2.w@0.:.g.++=&)+2.;.E.w@:._.g.g.g.g.j.i.i.A.g.g.g.g.g.I.-&;&:.:._.g.g.g.g.",
"g.g.g.g.g.g..+H.g.g.g.A.2%>&s._.8.g.g.g.g.g.g.g.g.g.g.8._._.8.z.j@,&'&g.s.s._.g.g.g.g.g.g.g.g.g.g.i.)&j.g.g.;+@+!$g.g.g.g.g.g.g.",
"j.j.j.j.j.X.A.j.j.j.j.X.2%!&j.j.j.j.j.j.j.j.j.j.j.j.j.j.j.j.j.H.~&V@Y.j.j.j.j.j.j.j.j.j.j.j.j.j.j.j.X.a$X.j.]+{&]&j.j.j.j.j.j.j.",
"^&k.k.k.k.j@k.k.k.k.k.j@/&m@k.k.k.k.k.k.k.k.k.k.k.k.k.k.k.k.k.S.z@X@P.k.k.k.k.k.k.k.k.k.k.k.k.k.k.k.k.e$(&~+4+-#P.k.k.k.k.k.k.k.",
"z@5+5+5+5+3$5+5+5+5+5+W@/&3+I@5+5+5+5+5+5+5+5+5+5+5+5+5+5+5+5+5+ #/&/+5+5+5+5+5+5+5+5+5+5+5+5+5+5+5+5+I@X@_&<+/&/+I@5+5+5+5+5+5+"};
