/* XPM */
static char * papier_peint_xpm[] = {
"64 64 554 2",
"  	c #E0E2DF",
". 	c #E6E8E5",
"+ 	c #E1E3E3",
"@ 	c #E0E4E4",
"# 	c #D1D5D6",
"$ 	c #D3D6D5",
"% 	c #D4D7D6",
"& 	c #D5D7D6",
"* 	c #D5D8D7",
"= 	c #D6D9D8",
"- 	c #D5D8D6",
"; 	c #D7D9D9",
"> 	c #D6D8D8",
", 	c #D5D9D8",
"' 	c #DEE2E3",
") 	c #DCE0E0",
"! 	c #E1E2E0",
"~ 	c #E7E9E7",
"{ 	c #DEE1E0",
"] 	c #DFE3E5",
"^ 	c #CED2D3",
"/ 	c #D5D9D7",
"( 	c #D7D9D8",
"_ 	c #D7DAD9",
": 	c #D8DBDA",
"< 	c #D9DBDB",
"[ 	c #D7DAD8",
"} 	c #D8DAD9",
"| 	c #D6DAD9",
"1 	c #D6D9D7",
"2 	c #E1E3E0",
"3 	c #E6E9E7",
"4 	c #E1E4E1",
"5 	c #DCDFDE",
"6 	c #DBDFDF",
"7 	c #DDE1E2",
"8 	c #E1E5E5",
"9 	c #E3E5E6",
"0 	c #E2E4E5",
"a 	c #E4E6E7",
"b 	c #E5E7E8",
"c 	c #E6E8E9",
"d 	c #E5E8E9",
"e 	c #E4E8E9",
"f 	c #E4E7E7",
"g 	c #E2E6E6",
"h 	c #E1E5E6",
"i 	c #E2E5E5",
"j 	c #E0E5E5",
"k 	c #DCE0E1",
"l 	c #D6DADA",
"m 	c #D3D6D6",
"n 	c #E0E2E0",
"o 	c #DFE1DE",
"p 	c #D8DCDB",
"q 	c #E0E4E5",
"r 	c #DFE3E3",
"s 	c #E0E3E3",
"t 	c #E0E3E4",
"u 	c #E1E4E4",
"v 	c #DFE3E2",
"w 	c #DADEDF",
"x 	c #D3D6D4",
"y 	c #E2E4E1",
"z 	c #CED0CF",
"A 	c #E2E4E4",
"B 	c #DADCDB",
"C 	c #D2D5D4",
"D 	c #D2D6D6",
"E 	c #D4D6D5",
"F 	c #D2D6D5",
"G 	c #D6D8D6",
"H 	c #D4D7D7",
"I 	c #D4D8D8",
"J 	c #D4D8D6",
"K 	c #D3D7D6",
"L 	c #D3D8D6",
"M 	c #D3D7D5",
"N 	c #D3D5D5",
"O 	c #E3E6E7",
"P 	c #D7DBDC",
"Q 	c #CED2D0",
"R 	c #DFE1E1",
"S 	c #DBDEE0",
"T 	c #D0D3D2",
"U 	c #D0D3D3",
"V 	c #D2D5D5",
"W 	c #D4D7D5",
"X 	c #D5D7D7",
"Y 	c #D4D8D7",
"Z 	c #DEDFDE",
"` 	c #E1E4E6",
" .	c #D6DADB",
"..	c #D1D3D1",
"+.	c #DBDFE0",
"@.	c #DCE1E0",
"#.	c #DEE2E5",
"$.	c #D6D9DC",
"%.	c #EBEDED",
"&.	c #E7E9E9",
"*.	c #E7E9E8",
"=.	c #E8EAEA",
"-.	c #E2E4E6",
";.	c #E1E5E7",
">.	c #E9EDED",
",.	c #E5E9E8",
"'.	c #E6EAE9",
").	c #E9ECEB",
"!.	c #E4E8EA",
"~.	c #E4E7E8",
"{.	c #E6E9E9",
"].	c #D3D6D7",
"^.	c #E3E5E4",
"/.	c #D9DCDB",
"(.	c #DADEDE",
"_.	c #DADDDF",
":.	c #DCE0E2",
"<.	c #DCE0DF",
"[.	c #D7DADB",
"}.	c #E9ECEC",
"|.	c #DFE2E4",
"1.	c #DDE1E1",
"2.	c #E3E6E5",
"3.	c #E2E4E3",
"4.	c #E3E7E7",
"5.	c #DDE0E1",
"6.	c #DFE2E3",
"7.	c #DDE0E2",
"8.	c #E8E9E9",
"9.	c #E7EAEA",
"0.	c #E2E5E7",
"a.	c #DEE2E4",
"b.	c #CFD2D3",
"c.	c #E7E8E8",
"d.	c #DBDFE2",
"e.	c #D9DDDD",
"f.	c #DFE3E4",
"g.	c #DEE2E2",
"h.	c #DADDDE",
"i.	c #D9DBDA",
"j.	c #D1D5D5",
"k.	c #D1D4D2",
"l.	c #DEE0DF",
"m.	c #DBDFDE",
"n.	c #E4E6E4",
"o.	c #E5E7E6",
"p.	c #E1E3E2",
"q.	c #D6D8D7",
"r.	c #D5D7D5",
"s.	c #DCDEDD",
"t.	c #E6E9EA",
"u.	c #E3E7E8",
"v.	c #E5E7E7",
"w.	c #E0E4E6",
"x.	c #E2E6E7",
"y.	c #DDE1E0",
"z.	c #DEE0E0",
"A.	c #D7DBDB",
"B.	c #CED2D1",
"C.	c #DFE1E0",
"D.	c #E7E9EA",
"E.	c #D8DBDB",
"F.	c #E5E7E5",
"G.	c #E3E4E4",
"H.	c #E7EAE9",
"I.	c #E2E5E6",
"J.	c #D8DCDD",
"K.	c #D5D9D9",
"L.	c #D9DDDC",
"M.	c #DBDDDC",
"N.	c #DEE1E1",
"O.	c #D7D8D8",
"P.	c #E2E5E4",
"Q.	c #D9DDDE",
"R.	c #E5E8E7",
"S.	c #DADDDC",
"T.	c #CFD1D0",
"U.	c #E6E8E7",
"V.	c #D5D8D8",
"W.	c #D6D9D9",
"X.	c #E1E3E4",
"Y.	c #D8DADA",
"Z.	c #D7DADA",
"`.	c #DADFDE",
" +	c #DDE1E3",
".+	c #CFD3D3",
"++	c #E3E6E6",
"@+	c #D8DBDD",
"#+	c #D4D6D7",
"$+	c #D8D9D9",
"%+	c #E1E4E5",
"&+	c #D6D9DA",
"*+	c #E2E4E2",
"=+	c #CFD2D0",
"-+	c #E4E6E6",
";+	c #CED2D2",
">+	c #DDDFDE",
",+	c #E3E5E3",
"'+	c #E4E8E8",
")+	c #DDE0DF",
"!+	c #DCDFE1",
"~+	c #DCDFDF",
"{+	c #D3D7D7",
"]+	c #D8DBDC",
"^+	c #DBDDDD",
"/+	c #DBDEDF",
"(+	c #DCDEDC",
"_+	c #E5E8E6",
":+	c #E8EBE9",
"<+	c #E5E6E5",
"[+	c #D3D5D4",
"}+	c #DFE2E1",
"|+	c #E4E5E6",
"1+	c #DDE0E0",
"2+	c #DFE1DF",
"3+	c #E4E7E5",
"4+	c #DFE3E6",
"5+	c #DBDFDD",
"6+	c #E4E8E7",
"7+	c #DFE2E0",
"8+	c #E8EBEA",
"9+	c #D1D2D1",
"0+	c #E3E6E8",
"a+	c #E0E1E1",
"b+	c #E2E6E5",
"c+	c #D0D2D2",
"d+	c #D1D4D3",
"e+	c #DADCDC",
"f+	c #DFE1E2",
"g+	c #E5E7E9",
"h+	c #D9DBDC",
"i+	c #D3D5D7",
"j+	c #E1E2E2",
"k+	c #D0D4D4",
"l+	c #DBDEDD",
"m+	c #E0E2E2",
"n+	c #DCE0DE",
"o+	c #DFE2E2",
"p+	c #E1E4E3",
"q+	c #E8EAE9",
"r+	c #D4D8D9",
"s+	c #D4D7D8",
"t+	c #D9DCDC",
"u+	c #D4D6D4",
"v+	c #E0E1E2",
"w+	c #E5E8E8",
"x+	c #E9EBEA",
"y+	c #D7DBDD",
"z+	c #D5D8D9",
"A+	c #DADEE0",
"B+	c #DBDEDE",
"C+	c #E9EBEB",
"D+	c #DCDFE0",
"E+	c #DFE0E1",
"F+	c #E1E5E4",
"G+	c #E5E6E7",
"H+	c #DADCDA",
"I+	c #E4E6E5",
"J+	c #E2E3E5",
"K+	c #DCDEDE",
"L+	c #D0D2D0",
"M+	c #CFD2D1",
"N+	c #E0E3E5",
"O+	c #EAEBEC",
"P+	c #D0D3D4",
"Q+	c #D7D9DA",
"R+	c #D4D6D6",
"S+	c #E0E4E3",
"T+	c #E7EAEB",
"U+	c #E5E9EA",
"V+	c #CDD1D1",
"W+	c #E1E2E3",
"X+	c #DBDFE1",
"Y+	c #CCD0D0",
"Z+	c #D1D3D3",
"`+	c #D8D9D8",
" @	c #DDDFE1",
".@	c #D8DADC",
"+@	c #DEE1E3",
"@@	c #E1E4E7",
"#@	c #E9EBE9",
"$@	c #E6E8E8",
"%@	c #E0E2E3",
"&@	c #E6E9E8",
"*@	c #DEE2E0",
"=@	c #DDDFDD",
"-@	c #E6E8E6",
";@	c #E4E5E4",
">@	c #E4E5E5",
",@	c #E9EAEB",
"'@	c #E2E3E4",
")@	c #DDE1E4",
"!@	c #DBDDDB",
"~@	c #DDDFDC",
"{@	c #E1E3E1",
"]@	c #D7DBDA",
"^@	c #DCDDDD",
"/@	c #D3D7D4",
"(@	c #D8DBD9",
"_@	c #DEE0DE",
":@	c #DBDDDE",
"<@	c #D7D9D7",
"[@	c #D8DAD8",
"}@	c #CFD2D2",
"|@	c #D2D4D2",
"1@	c #ECEDED",
"2@	c #DEE1E2",
"3@	c #E0E1E0",
"4@	c #E0E2E1",
"5@	c #D1D4D4",
"6@	c #E0E1E3",
"7@	c #E5E9E9",
"8@	c #E0E2E5",
"9@	c #DEE2E1",
"0@	c #E4E7E6",
"a@	c #E0E2E4",
"b@	c #D9DDDF",
"c@	c #D1D3D4",
"d@	c #CDCFCF",
"e@	c #CED1D0",
"f@	c #E2E6E4",
"g@	c #D0D4D3",
"h@	c #DEE0E2",
"i@	c #E0E4E7",
"j@	c #D5D9DA",
"k@	c #E3E5E5",
"l@	c #DADEDD",
"m@	c #E7E9E6",
"n@	c #E3E6E4",
"o@	c #D4D5D4",
"p@	c #DEDFE0",
"q@	c #D6DADC",
"r@	c #E2E3E3",
"s@	c #E0E3E6",
"t@	c #DDE2E4",
"u@	c #E2E5E3",
"v@	c #E1E5E8",
"w@	c #E4E7E9",
"x@	c #DDDDDB",
"y@	c #DFE2E5",
"z@	c #E9EAEC",
"A@	c #DEDFE1",
"B@	c #EAECEB",
"C@	c #D2D5D3",
"D@	c #D6DAD8",
"E@	c #DCDFDD",
"F@	c #E8EBEB",
"G@	c #D6D7D8",
"H@	c #D9DCDE",
"I@	c #DBDDDA",
"J@	c #DBDCDC",
"K@	c #DFE0E2",
"L@	c #D6D7D7",
"M@	c #DFE1E3",
"N@	c #D3D5D3",
"O@	c #E4E6E8",
"P@	c #DADDDD",
"Q@	c #D9DCDA",
"R@	c #D7D8D7",
"S@	c #E6E7E7",
"T@	c #DBDEDC",
"U@	c #D9DAD9",
"V@	c #E0E3E2",
"W@	c #DDDFE0",
"X@	c #D1D4D5",
"Y@	c #D2D4D3",
"Z@	c #E9EAE9",
"`@	c #D6D7D6",
" #	c #DFE2DF",
".#	c #E7E7E6",
"+#	c #E5E6E4",
"@#	c #EAEAE9",
"##	c #D3D7D8",
"$#	c #DEE0E1",
"%#	c #DCDDDE",
"&#	c #DDDFDF",
"*#	c #E5E6E6",
"=#	c #D0D5D3",
"-#	c #D1D5D4",
";#	c #E2E3E2",
">#	c #D2D5D6",
",#	c #D9DCDD",
"'#	c #D9DBD9",
")#	c #DCDEDF",
"!#	c #DFE0E0",
"~#	c #DADBDD",
"{#	c #D0D2D3",
"]#	c #E6E7E8",
"^#	c #D8DADB",
"/#	c #CCCFCE",
"(#	c #CFD3D2",
"_#	c #D5D9DB",
":#	c #CFD1D1",
"<#	c #DDDEDE",
"[#	c #E1E2E1",
"}#	c #CFD1CE",
"|#	c #DFE0DF",
"1#	c #D2D4D5",
"2#	c #CFD1D2",
"3#	c #D5D8DA",
"4#	c #E6E7E6",
"5#	c #D5D7D8",
"6#	c #E1E3E5",
"7#	c #CBCECD",
"8#	c #DBDCDB",
"9#	c #D8D9D7",
"0#	c #CFD1CF",
"a#	c #DFE0DE",
"b#	c #D8DCDC",
"c#	c #CBCDCB",
"d#	c #D2D6D7",
"e#	c #D3D4D4",
"f#	c #E1E4E2",
"g#	c #DADBDA",
"h#	c #D1D3D2",
"i#	c #D7DADC",
"j#	c #CDD0D0",
"k#	c #EAEBEA",
"l#	c #D9DADB",
"m#	c #DCDDDC",
"n#	c #DDE0DE",
"o#	c #D0D3D1",
"p#	c #D7D9DB",
"q#	c #D0D2D1",
"r#	c #E1E2E4",
"s#	c #DBDCDD",
"t#	c #CCCFD0",
"u#	c #C8CBCA",
"v#	c #CDCFCE",
"w#	c #D1D3D5",
"x#	c #CDD0D1",
"y#	c #DEDFDF",
"z#	c #DEE1DF",
"A#	c #CED1D1",
"B#	c #DDE1DF",
"C#	c #DCDDDF",
"D#	c #DADCDD",
"E#	c #D6D8DA",
"F#	c #DADBD9",
"G#	c #DEE0DD",
"H#	c #CFD3D0",
"I#	c #D4D7D9",
"J#	c #DADCDE",
"K#	c #D9DBDD",
"L#	c #D8DCDE",
"M#	c #DBE0DF",
"N#	c #D4D8DA",
"O#	c #CBCFD0",
"P#	c #E0E3E1",
"Q#	c #E8E9EA",
"R#	c #DDDEDF",
"S#	c #E6E7E9",
"T#	c #DBDCDE",
"U#	c #DADDDA",
"V#	c #DEE1E4",
"W#	c #D2D3D5",
"X#	c #DBE0E0",
"Y#	c #DDDEE0",
"Z#	c #DDDEDD",
"`#	c #D6D8D9",
" $	c #E9EBEC",
".$	c #E6EAEB",
"+$	c #D9DBD8",
"@$	c #EAECEC",
"#$	c #E6EAEA",
"$$	c #CBCECE",
"%$	c #CECFCF",
"&$	c #CED0D0",
"*$	c #D8D9DA",
"=$	c #E7E8E9",
"-$	c #E8EAEB",
";$	c #D5D6D6",
">$	c #D5D6D7",
",$	c #D7D8D9",
"'$	c #DCE0E3",
")$	c #D4D6D8",
"!$	c #D9DADA",
"~$	c #E8E9E7",
"{$	c #D6DAD7",
"]$	c #E6E8EA",
"^$	c #DADEDC",
"/$	c #DADBDB",
"($	c #E0E5E3",
"_$	c #D0D4D5",
":$	c #D3D5D6",
"<$	c #DFE3E1",
"[$	c #E2E5E8",
"}$	c #D5DADA",
"|$	c #E7E9EB",
"1$	c #EAECED",
"2$	c #E4E5E7",
"3$	c #E7E8EA",
"4$	c #CCCFCF",
"5$	c #DDE0E3",
"6$	c #CFD0D0",
"7$	c #D4D9D8",
"8$	c #DADDDB",
"9$	c #DCDEE0",
"0$	c #E7E8E6",
"a$	c #E3E3E3",
"b$	c #D2D6D4",
"c$	c #CED1D2",
"d$	c #D2D3D3",
"e$	c #D1D2D2",
"f$	c #E3E5E7",
"g$	c #E5E8EA",
"h$	c #CFD2CF",
"i$	c #E3E7E6",
"j$	c #DDDEDC",
"k$	c #EBEDEC",
"l$	c #E3E4E3",
"m$	c #DBDDDF",
"n$	c #D3D4D3",
"o$	c #DEDFDD",
"p$	c #E2E6E8",
"q$	c #E2E4E7",
"r$	c #D3D4D2",
"s$	c #E2E3E1",
"t$	c #E9EAEA",
"u$	c #CACECE",
"v$	c #D1D3D0",
"w$	c #E8E9E8",
"x$	c #D4D5D2",
"y$	c #CFD3D4",
"z$	c #CCD0D1",
"A$	c #DBE0E2",
"B$	c #CED3D3",
"C$	c #D2D4D4",
"D$	c #E7EBEB",
"E$	c #E7EBEA",
"F$	c #E8ECEC",
"G$	c #EAEBEB",
"H$	c #CCCDCE",
"I$	c #CBCDCE",
"J$	c #CACDCD",
"K$	c #CACDCE",
"L$	c #C9CCCD",
"M$	c #C8CCCD",
"N$	c #C9CDCD",
"O$	c #CACCCD",
"P$	c #CACECF",
"Q$	c #CDCFD0",
"R$	c #CBCFCF",
"S$	c #CCCECF",
"T$	c #CFD0D1",
"U$	c #CCD0CF",
"V$	c #CBCFCE",
"W$	c #CDD0CF",
"X$	c #D8DDDD",
"Y$	c #E8EAE8",
"Z$	c #D5DAD9",
"`$	c #CDD1D2",
" %	c #CED0D2",
".%	c #CFD3D1",
"  . + @ # $ % & * & * * = * * * - * = ; > = ; , = * * * ' ) * ! ~ { ] ^ / % % - % % % ( = _ _ _ : : < _ [ = = = [ } | ' ) 1 2 3 ",
"4 2 5 6 7 8 9 9 0 0 9 a a a b c c d e b f g g 8 h i 0 j k l m n o p 6 k q q q ] q q r r s t h q 8 0 u @ @ t q @ @ s v w p x y 2 ",
"z - A k p B C D E F D E G & H I J K I L J K * H M % N B O P , Q M R S l = T U C V F % E W W & & - M % E $ N X Y % - Z `  ., ..* ",
"l 6 +.q @.' #.$.%.O ' &.*.=.-.;.>.` q ,.'.).!.~.{.` ] ].^.' P /.(._.:.<.:.:.[.}.|.1.2.3.4.5.6.{.7 7.f 8.9.` 0.,.a.7 b.c.d.P e.1.",
":.f.g g.) i d h.i.+ j.k.3.l.=.m.n.A o.p.q.r.h s.E t.u.q C v.O S w.x.y.z.f.x.A.& i B...C.C.D.E.F.6 G.5 G G 6.l.( d u.|.% H.I.J.g.",
"&.K.L.e.J.M.N.y.O.P.Q.R.S.T.U.V.W.z.} C.; U.X.Y.Z.4.e.`. +.+: ++L.Z.@+#+$+%+y.Y q &+*+; =+-+;+_ g.r.>+& ,+t q.W.'+) )+!+U )+8 ~+",
"&.{+u.f.]+^+/+A.(+_+k C.:+<+[+~.' Z.}+|+~ o.1+2+3+q P L.4+w.* f : I.#.&+^+(.L.5+6+P 7+8+z.9+0+7.K.n a+,+3.]+*+b+h P ~+h w., g : ",
"=.Y '+t.'+y.u M.c+}+' W.d+>+X.%+q f.K p.Z.e+t * ~+8 ' f+D.d K.g+h+4.e ~.5.%+i+E j+' F k+l+m+f.w.+.$ M.; < +.q.n+@ 1.o+=.f _ I./.",
"D.I g d+s.P.p+q+w r+Q.7  +s+) }.w.'+E.N.w.o+h.t+7 P.H.>+u+v+K.w+: R q.B o+l.x+y+z+h.N.A+{+B+C+a.R.I ) Q.D+&+z+h.^.o./.G 1+- i : ",
"9.| ,.@+i./.$ = E+l.O e+f F+<.b+a.; G+v.++4.m+H.J.W H+q.: ;.V.w+/.g s+/.E.& } w 3.6.z.O x.t+I+w s.J+X.+ t K+g r+L+i.M+< N+, t : ",
"H._ =.O O+8 r k 7 P++.Q+E > V.k 4+i+R+} Y.S+L.(.k h 7 @ T+t.K.b < O x.U+|.7.7 7 V+W+U E ( {+X+a.Y+Z+`+R+k F J.J. @.@+@f @@* r : ",
"x+| 9./.#@>+3.o+w %+1+s #@$@a.a.a.|.` %@8+&@x.~.7 B+*@2.=@=.W.b : -+- -@>+;@N.h.d W.>@,@'@+@)@ +a.7 ~+&.S+t o+J.< !@{ ~@++% 6.= ",
"x+I 6+d+B M.{@U.q j.w+]@o >+w.4+h h w ^@!@H.~+9 q M.q+K /@A W.d E.j+L+=@W.p+i q T b (@_@:@#.#.4+4+Q./.<@f > t J.[@{@}@|@R $ 6., ",
"x+l '+= 3.1@} A U+7 8 ^ l+R 2@q 4.' h Y 6 t+l.w+g.p.l.*.n I.l '+/.s , 3@*.( -+0+1.4@5@X 6.+.v 8 1.7 m < ].s.6@B+M.} n.!@g.W r W.",
"C+A.7@8@/.X )+; f.6 f.)@' q 9@y.{ S+i 0+:.q /.0@B+m F+W 0@;.A.w+: b+A+t+_ ( ; o+m.a@b@' X+g.m.y.u @ 4+b@b@i.j+c@d@{ e@m+:.% 6.Z.",
"=.l 7@f.f@+ &+7 g@H 7 #. +w <.4@o.3+8 h@i@i@j@$ C.6.l ' 9 ` l w+/.g +@k@h+]+_.U / #.a.w w l@p.m@n@v a.#.a.}@o@p@q@D l+f+:.W.6.E.",
"=.l U+, y r@` 4+s@|.t@)@d.l ]@l.M.u@s.7 4+i@] 9 h v@7 B *+w@K.g+/.g &+p.%@] ] ] ] #.#.+.L.W.7+x@_+<.f.] 4+y@a.y@a.J./.3.] = s : ",
"C+| U+2@O.|+z@A@N.B@O )@:.e.]@C@D@E@C.a.4+#.%+*.$@5.F@:@K+` l g+: x.e.G@O d H@i B@v@4+7 B+S.x I@}+v g w.4+%+q+O k F@V.J@|._ 0 S.",
"8+| 7@X.B 2.{ B@K@L@^.M@I./+]+]@m.p k ' 0.+@^+^@r@-@N@x+G+w.W.O@/.x.w l.4@p.C+E.& |+` I.X+A.l@6 6 q q u.|.)+P@+ G.E q+k@y@: i s.",
"H.I 4.Q@`+i.i.R@/+5@R.N.S@c !+S +.+.a.6.m+A )+6 b.T@j+T.U@0 V.a i.s L.u+l+} R@/+c+v.m+&.g+ +J.' 7 ' 6+V@f+{@W@X@!@>+Y@U@0 (@i l+",
"q+Y 4.)+Z@I+`@m+a.P@}+* ;@4@s@#.f.] +.(  #o.K g :.N ^.z..#v.I O Z.g.}+#@l.[@R :.K+1+B 3.'@] ] a.] 6@<@+#k@M.~.:.r.o.5 @#A : X.l+",
"&.m 0@X o.r.% k Q.##' 5@|@$#a@a.#.a.o+E L+%#> = w V.q.&#H+*#K P.W.9@M *+R+> w A.I 7 =#-#h.)@#.#.#.+.C@..;#>#,#k r+'#C._@0 _ 0 /.",
"&@m ++>#V.)#0.e.' b+6.s !#p.4@b  +q p.l.k@W@z.b +.%+8 ~#{#!+K k@W.f.;+z+h.f+]++.f g.8 )+;@p+w.)@O r u ]#^#2.b 5.s z.]+U 2@_ %+L.",
"&.K f w 9@M.2.x+k /#6.V < V C q+X+S.i.~+V f+(#E.V.U.8+m+3@` I 9 _ @ 6 l.} U.U._#T.7 H P@Z+5@9.A+C.K.t+:#I.M+<#E.*.q++ r@y@_ I.S.",
"c m P.< [#>+N@, N+a f.6 1.k@} h.:..+&#}.t 7 6.d h.}#M.O.Z v.H 9 Y.9@P@|#Y...E.7 t Q.k 7 9 1#o+A+H 2@9.h@7 f.a ].N@B = _@g+_ 8 S.",
"$@m i [.2#> V./+M.^.3#A ;@q.v. + +' } 4@q+o.J.H+4#:@* : &+H@m X.= 7 r+2#X 5#_.(+n I p.4@} f 7. +B+M.4@q+u ]+~@4#5#X Z.#+]+* 6.: ",
"-+g@g :.&+R 6#P@7#8#S 9#0#} 4@@ h V a#E q.3./+..U@v.1+K+|.#.& u = %+ +[.a+7 b#c#J@d#`@e#Y@f#f.q * g#h#[+>@i#|@( d )#!#a@7 X o+< ",
"1.j#S.c /+l+X.B C.3@:@`+o.>+m+m+*.m+U@B@C.M.2@s.p.o+M.K+t @ : ' :#a+b h./.s /.^+K+W.G l.3.S.1.k#l#m#&.M.8#h.(+m.1.s.C.|.g ]@2@[+",
"7 q s+j#^.w A+1#;#{ z+3+o.[ N :#n#P@o#C.4@x+-._ p.q ]+Q.6 l w |.7.j.N@r@P +.X@T@W@* I+3.d+= 7#_@K./#~+^.x+h.} p+'  .p#N., (.f.J.",
"_ B+f.J.R+v.f.z+l#M@#+e@_ t+N+h@G@6#2@& q#..r#s#h#6#|.h.m.+.5.e+o+q K.^+6#+@P+K.w t#u#E [.X+3#j.X+W.u+v#v#+@w#Z++@+@6 l@k 5.B+r ",
"n@:+}+f.x#y#&#)+z#N.{ )+y.1+)+)+{ )+{ p.+ }+}+{ { n#=@l+' +.V.I+q+y.] A#z#l.5 B#y.1+5 5 n+<.>+~+<.)+&#)+R R R l.1+N.p k :@M.o.U.",
">+s.l.6 +.C#/+(.(./+(.(.e.e.Q.w Q.w w %#B+(.(.Q.Q.:@D#J.w A.= !@l.)+1.+.:@s#e.b#A.&+r+{+r+I E#&+K.r+j@l Z.Z.l A.l r+j@_.]@C@F#G#",
"H#(@9@A+P =@i.e+B < B (+s.>+5 &#s.K+^@s.s.(+s.>+>+)+<.p.I.K.m [+H+L.k B+l.l._@>+>+5 5 K+K+>+<#l.)+>+M.B s.T@l+l+>+)+p+S ##.+u+D@",
"t+)+w a.(.(. .I#9 J#k R a++ K#L#+.Q._.V@+ A 5._.5.H@Q.c+&.D+@+< )++.7 m.w J.> o+@+7 K+J@W@ .[.,#y+b#}+p.R J.P <.j@q@}@O P K.| (.",
"j@w q @ M#7 ] j@B ++j.l.U.l.=.B+q+W+-+C.l.V@%+9@} O ] H@* =.+.j@Q.q v ) y@s@A.i.b V  #p++ {.m.k#$#m+)+2+3.5.}+!@M@)@N#M.4.A+r+w ",
"=.1+o+A.P R O <.& )+P >+* = {@U [@<#E ,+W l.t h#> w+p+1.b#U p.++f+6 l Z.z.D.<.* N.[.i.X B l.O#H+< <@l.R@H+~+E | '+x.8 K./.I+t @ ",
"q+, v.] e.y#h.(.j+U.@+>+*.M.q.{.,#$#C.C.G.4@:@,+I+%+V.<.|.:.* ++< g. +E.>+D#)+^.k@s+P#*.E ^+t w 9@l.}+(+4@^#n.N.@ p y.g.+./.t m.",
"*.K.D.I.g+k@Q##+M.p.7.-#F 5 R  @q P | l.s.R#6@'#3.h 4.-+-.a@K.f E.8 a.] s S#N T@j+e.(#, Q@B+' ] I S.B i.&#T#U#P.h t X.8@V#T@t 5 ",
"C+W.-+B n ^+m#C+W#Q+H@X#J.{+D+F@q ~.H )+/+N.Y#} P@-+!#( s.++W.f S.~+v z.; Z#v.2#B+(.1.r+, 7 t.y@f `#)#Q.A@)#m h.v.^+; <#I.: u 5 ",
" $Z.Q#Q+M.D#H+l+K@k@0 + b 1.(.v.' 1+$@@ .$4.0 D.e.: 3.E l.h W.a e+O -#} t+s.C./+D.A@0@x.5.Z.{.A+n.J+0 ~.a X.d E.+$u@% 4@|./.0 ~+",
"@$A.#$b A k A.b#' $$v.%$B 3.Z.7 w.&$m#o._ f.^+1+w :@*$%@f+0+K.~.S.g ` K@@+j@m.k T.=$j#C.^.} k ' v#s.I+} ' ]@k e.} q.&#$#` /.0 >+",
"C+W.-$q.B@u &@p+g.D.;$&@I+Q+S )@a.N+]+; x+6+6#&.+ + o.^.*+c | ~.S.g : *.w+9.6.8 9.>$,@!#,$/+'$a.V#)$!$*.b+r {.f.9 S@4@~$w+/.%+s.",
"D.V.*#X v.q.7+o. +5@=$* 4@<#y@)@' f.w s._@q+)+0 /+N.2+: 2+f W.f /.g.{$o.V p.s w $ -+i.,+R# +'$)@#.D#q.n ,.)+o+Q.*@'#5 4 -+Q@%+T@",
"D.I 4.M.>+&.& I+]$e.o.U q.e k q 4.' q ]@^$5 I+0 0 /$z.+ (+a V.a < g.J@>+m+W v.%+l@*#< u+{.7 7 f.f.k ]+( )+I+N+h@E >+j+s.u./.0 S.",
"D.K.4.Z.( l+* `+>+/.4@Q.t w S+y.y.u O 7 Q.k i.A q.% ($= )+7.H 0 Z.q _$= { g@} /+t+V@@+0 W@f+~+m.<.7 w  .W.B 1+:$_ p.} J@ +: t S.",
"D.K.e  +t+l e+@+S.)+5.#.] g.m.v c.3.W+7 i@h c@3.>@]+K.6 h.a.V.0 _ f.L#/.M+:@&+}+)+' q ' ' l@V@o.)+6 k 7 +@c+I+W+# I ^#s# +/.6.l+",
"H.| e +._+&@N+a.w X+#.#.)@r m.<$M.U.}+4.w.h [$6 |.h 2@4@H.x.V.%+_ @ w I+~.:.X+}$+.4+] a.1.l@C.[@P.m.f.)@ +5.V.,#:.:.o+x+a.: 6.l+",
"&.| 7@,#[+m+|$K@D. $] )@)@b#e.K 4@z#<.r q h x.).1$2$3$5@_ ` W.I.t+q # Y@h.u.7 7@t.)@#.7 p : ( _@l+P@+.:.:.' {.4. +w 4$V :._ o+/.",
"&.l e 5$A 3.p.S@Y@h#$@' ' w b#e.: B+8 k h h 5 } M.>@^@Q#,@` Z.O e+@@L#$@{ v R 6$T c a.k Q.A.7$/ ]@6 w 7 +.: L+> K+>++ f X+1 5.8$",
"c Y 4.m+N@n $ s.4@X *.z.9.O@b@A.m.) w D.A %@n@%@P@i.i.H+!#T+Z.O ^+%+A E 9@h#_@9$( -+N.t.8 Q.l L.6 ]+v.s e+*+W@W.u+&$'#>+a@% +.(@",
"c K g >+0$M.{ >+ +1+z.B {@-+' :.+.w q E ,+o.>+$@Q.^+x+Y.o.3.l a S.g.4@a$; n.^+!+s.R#4@C.g :.7 k w t [+*+<#z#t D =@k@;$a#K+= !+[ ",
"b F i T F.l+Z#R g.{++.% [@<  +)@#.)@ .R+W *.(#F+r _ P.3.G#3.l a S.g.- 3.4@4@(.f.I (.% M.L.' 4+] ' z+q.k.U.7#g k b$3.T@2+z.(@1._ ",
"$@V O c$;$V.].,#+.i @ D++ U.g+V#)@|.P.0@S@L@8+p+1.K+#+( :#f.V.O /.@ B.Z.H s+1+Q.9 r D+r@0@t.#.f.-.8 ^.A d$&.L.l@z+;+Y A#s (@6./.",
"D.* f 7.9 %#*.U.D+& s E.q.e$x  $+.>+> M L+=.Y@v.~+q+B@I+=$N+K.f$B h %+S#z.B@v._.S.7 E.& * E -$'$3.]@X [+b h#w+z.c.*.i g$' Q@t l+",
"=.W.$@A =@( h$>+A+,#+.l@7.s j.F++./ W@I.+@P@o+<#G@'#(+& Z#1$l a l+g i$O.= $ v h.~#h.k 7.a@Y@v.Q.B#+ 0 k 7 h.T#W#j$l.= l.c l+-.)+",
"c , A {#H D#e+J.P.I+i#W@u >+0@e. +z+M.I+-.B+)#{@k$e#m#&#V.@+, 9 ^+y.}@$+>+M.7 &@A  @D+v+l$+ 7.a.^#f#H.++) /+I+S@9+>+l+% m$8$%+)+",
"'+% ++a.a.U.+ B+$ o.@+B l+h#p.4.f.$#n$q.C.4#_._@o$,@z. $p$4+D@i S.I.N+b b q$~+Q@q+]+C.2.=+v.u.f.A r$M.*+C+/+s$s.c s.t$]  +_ 5.S.",
"4.g@{.O Z.m.i$B > q.P <@& o.8#t &.#+l.o.Y@s.P@q.S.@ V@>+r ;.C.0 W.C+0.Q+a+9 }+<@< Z.s.> *.S.o+1$M+l$j+W p.]+q.i.u 4@s.+@@ <.6 | ",
"+.e.u$/.4@##J.#+Q@+ A.*.q+v$p.$ p.) / )+U.w$r /.C.%+K.D q L.{+' I#j#3.K+##f./.[@]#R#<+F.x$&.- U.N.i.r@Z@#@2@^@p.N.#+>#s A.y$k z$",
"B+f.h j.s.` A$B$L.P 4$/#: /. .d#k+J.D _ T e@f.b.B |.#.+.B+) X+) q f.;+-+s@4+F l.5.j#h$8$&#i#k+I Q.C$8#r.o@2@c+2+' )@+.L.D+X+k f.",
"p+8+N.f.j#@$=.o.$@F@).v.I+*.8+9.#$D$E$^.^.B@C+&.S+F@F@m+D+Q.o+4@v.7.:.C$@$ $^.C+F$C+^.I+&@t.#${.9.9.A 3.x+C+G$p.9.#$<.w L#o+}+A ",
"T@_@2.7 j@H$I$J$u$K$L$M$N$N$O$J$u$P$u$P$O#t#Q$4$R$S$H$c$k e., I@s$1+q >#j#V+T$j#Y+U$V$R$V$U$4$/#U$;+.+M+2#Q$j#W$V$J$(#7 ) _ (+-@",
", /.: X$w 7@&.U.'+6+R.f i$6+,.,.&@&@&@Q#Y$q+q+&.Q#T+#$7@+.{+R$U#'#H b@5.T+D$#$c D.*.&@$@w+t.D.D.-$=.=.=.9.#$=.8+8+-$-$P , W$l.!@",
"g@: .@A+Z$F z$j#H x#;+M+C :$`$ %j#`$Y+C$Y@h#V+V$d+V+`$4$g q@k+M+m J.b@| ;+z$A#5@`$}@h#h#U Y+4$t#z$j#Y@Y@2#V+j#C$V+Y+% t l F .%5@"};
